{"asset":{"version":"2.0","generator":"Unity 2021.3.31f1 glTFast 5.0.5"},"nodes":[{"name":"pant","mesh":0}],"buffers":[{"uri":"pant.bin","byteLength":116676}],"bufferViews":[{"buffer":0,"byteLength":19644},{"buffer":0,"byteLength":74640,"byteOffset":19644,"byteStride":40},{"buffer":0,"byteLength":22392,"byteOffset":94284,"byteStride":12}],"accessors":[{"bufferView":1,"componentType":5126,"count":1866,"type":"VEC3","max":[0.225163013,0.114538662,1.01661348],"min":[-0.225163043,-0.175833166,0.099383]},{"bufferView":1,"componentType":5126,"count":1866,"type":"VEC3","byteOffset":12},{"bufferView":1,"componentType":5126,"count":1866,"type":"VEC4","byteOffset":24},{"bufferView":2,"componentType":5121,"count":1866,"type":"VEC4"},{"bufferView":2,"componentType":5126,"count":1866,"type":"VEC2","byteOffset":4},{"bufferView":0,"componentType":5123,"count":9822,"type":"SCALAR"}],"images":[{"name":"TEX_M_LEGS_01_R_DO.jpg","uri":"TEX_M_LEGS_01_R_DO.jpg","mimeType":"image/jpeg"},{"name":"TEX_M_LEGS_01_R_NAO.jpg","uri":"TEX_M_LEGS_01_R_NAO.jpg","mimeType":"image/jpeg"}],"materials":[{"name":"MAT_M_LEGS_02","pbrMetallicRoughness":{"roughnessFactor":0,"baseColorTexture":{"index":0},"metallicRoughnessTexture":{"index":1}}}],"meshes":[{"name":"MESH_M_LEGS_02_B","primitives":[{"attributes":{"POSITION":0,"NORMAL":1,"TANGENT":2,"TEXCOORD_0":4,"COLOR_0":3},"indices":5,"material":0}]}],"scene":0,"scenes":[{"name":"Test","nodes":[0]}],"textures":[{"source":0},{"source":1}]}