{"asset":{"version":"2.0","generator":"Unity 2021.3.31f1 glTFast 5.0.5"},"nodes":[{"name":"MESH_F_LEGS_01_B","mesh":0,"translation":[-215.135,-0.121999994,73.767],"rotation":[-0.7071068,0,0,0.7071068]}],"buffers":[{"uri":"pant.bin","byteLength":159172}],"bufferViews":[{"buffer":0,"byteLength":18648},{"buffer":0,"byteLength":73960,"byteOffset":18648,"byteStride":40},{"buffer":0,"byteLength":66564,"byteOffset":92608,"byteStride":36}],"accessors":[{"bufferView":1,"componentType":5126,"count":1849,"type":"VEC3","max":[0.2092615,0.09567082,0.918534935],"min":[-0.209273309,-0.152616918,-0.004827976]},{"bufferView":1,"componentType":5126,"count":1849,"type":"VEC3","byteOffset":12},{"bufferView":1,"componentType":5126,"count":1849,"type":"VEC4","byteOffset":24},{"bufferView":2,"componentType":5121,"count":1849,"type":"VEC4"},{"bufferView":2,"componentType":5126,"count":1849,"type":"VEC2","byteOffset":4},{"bufferView":2,"componentType":5126,"count":1849,"type":"VEC2","byteOffset":12},{"bufferView":2,"componentType":5126,"count":1849,"type":"VEC2","byteOffset":20},{"bufferView":2,"componentType":5126,"count":1849,"type":"VEC2","byteOffset":28},{"bufferView":0,"componentType":5123,"count":9324,"type":"SCALAR"}],"images":[{"name":"TEX_F_LEGS_01_R_NAO.png","uri":"TEX_F_LEGS_01_R_NAO.png","mimeType":"image/png"},{"name":"TEX_F_LEGS_01_R_DO.png","uri":"TEX_F_LEGS_01_R_DO.png","mimeType":"image/png"},{"name":"TEX_F_LEGS_01_R_RMES.jpg","uri":"TEX_F_LEGS_01_R_RMES.jpg","mimeType":"image/jpeg"}],"materials":[{"name":"MAT_F_LEGS_01","pbrMetallicRoughness":{"roughnessFactor":0,"baseColorTexture":{"index":1},"metallicRoughnessTexture":{"index":2}},"normalTexture":{"index":0}}],"meshes":[{"name":"MESH_F_LEGS_01_B","primitives":[{"attributes":{"POSITION":0,"NORMAL":1,"TANGENT":2,"TEXCOORD_0":4,"TEXCOORD_1":5,"TEXCOORD_2":6,"TEXCOORD_3":7,"COLOR_0":3},"indices":8,"material":0}]}],"scene":0,"scenes":[{"name":"MESH_F_LEGS_01_B","nodes":[0]}],"textures":[{"source":0},{"source":1},{"source":2}]}