{"asset":{"version":"2.0","generator":"Unity 2021.3.31f1 glTFast 5.0.5"},"nodes":[{"name":"HangingRedShirt","mesh":0,"translation":[-2.88971758,0.09032619,-1.17026854],"rotation":[-5.236245E-06,0.00301476778,0.00173687562,0.999994]}],"buffers":[{"uri":"HangingRedShirt.bin","byteLength":368448}],"bufferViews":[{"buffer":0,"byteLength":88272},{"buffer":0,"byteLength":280176,"byteOffset":88272,"byteStride":48}],"accessors":[{"bufferView":1,"componentType":5126,"count":5837,"type":"VEC3","max":[0.267247438,0.759633362,0.06222949],"min":[-0.2767657,-0.00699788332,-0.05640199]},{"bufferView":1,"componentType":5126,"count":5837,"type":"VEC3","byteOffset":12},{"bufferView":1,"componentType":5126,"count":5837,"type":"VEC4","byteOffset":24},{"bufferView":1,"componentType":5126,"count":5837,"type":"VEC2","byteOffset":40},{"bufferView":0,"componentType":5125,"count":10428,"type":"SCALAR"},{"bufferView":0,"componentType":5125,"count":11640,"type":"SCALAR","byteOffset":41712}],"images":[{"name":"fabric_138_normal-2K 1.png","uri":"fabric_138_normal-2K 1.png","mimeType":"image/png"},{"name":"glb.png","uri":"glb.png","mimeType":"image/png"}],"materials":[{"name":"Material.012","pbrMetallicRoughness":{"metallicFactor":0,"baseColorTexture":{"index":1}},"normalTexture":{"index":0},"doubleSided":true},{"name":"Material.018","pbrMetallicRoughness":{"metallicFactor":0},"doubleSided":true}],"meshes":[{"name":"HangingRedShirt","primitives":[{"attributes":{"POSITION":0,"NORMAL":1,"TANGENT":2,"TEXCOORD_0":3},"indices":4,"material":0},{"attributes":{"POSITION":0,"NORMAL":1,"TANGENT":2,"TEXCOORD_0":3},"indices":5,"material":1}]}],"samplers":[{"minFilter":9987}],"scene":0,"scenes":[{"name":"HangingRedShirt","nodes":[0]}],"textures":[{"source":0},{"source":1,"sampler":0}]}