{"asset":{"version":"2.0","generator":"Unity 2021.3.31f1 glTFast 5.0.5"},"nodes":[{"name":"body","mesh":0,"translation":[0,0,0.01530222],"rotation":[-0.7071068,0,0,0.7071067],"scale":[100,100,100]},{"name":"glasses","mesh":1,"translation":[0,0,0.01530222],"rotation":[-0.7071068,0,0,0.7071067],"scale":[100,100,100]},{"name":"rubber","mesh":2,"translation":[0,0,0.01530222],"rotation":[-0.7071068,0,0,0.7071067],"scale":[100,100,100]},{"name":"Glasses","children":[0,1,2],"mesh":3,"translation":[0,0,0.1088],"scale":[0.169324,0.169324,0.169324]}],"buffers":[{"uri":"Glasses.bin","byteLength":13775616}],"bufferViews":[{"buffer":0,"byteLength":1578048},{"buffer":0,"byteLength":3690960,"byteOffset":1578048,"byteStride":48},{"buffer":0,"byteLength":48192,"byteOffset":5269008},{"buffer":0,"byteLength":208896,"byteOffset":5317200,"byteStride":48},{"buffer":0,"byteLength":33600,"byteOffset":5526096},{"buffer":0,"byteLength":139920,"byteOffset":5559696,"byteStride":48},{"buffer":0,"byteLength":1741632,"byteOffset":5699616},{"buffer":0,"byteLength":6334368,"byteOffset":7441248,"byteStride":48}],"accessors":[{"bufferView":1,"componentType":5126,"count":76895,"type":"VEC3","max":[0.00485837,0.0118081449,0.00103364908],"min":[-0.00485837,-0.000147461891,-0.0017955692]},{"bufferView":1,"componentType":5126,"count":76895,"type":"VEC3","byteOffset":12},{"bufferView":1,"componentType":5126,"count":76895,"type":"VEC4","byteOffset":24},{"bufferView":1,"componentType":5126,"count":76895,"type":"VEC2","byteOffset":40},{"bufferView":0,"componentType":5125,"count":370752,"type":"SCALAR"},{"bufferView":0,"componentType":5125,"count":20496,"type":"SCALAR","byteOffset":1483008},{"bufferView":0,"componentType":5125,"count":2304,"type":"SCALAR","byteOffset":1564992},{"bufferView":0,"componentType":5125,"count":960,"type":"SCALAR","byteOffset":1574208},{"bufferView":3,"componentType":5126,"count":4352,"type":"VEC3","max":[0.00403997628,0.00108910387,0.0007399547],"min":[-0.00403997628,9.30995448E-05,-0.00154013163]},{"bufferView":3,"componentType":5126,"count":4352,"type":"VEC3","byteOffset":12},{"bufferView":3,"componentType":5126,"count":4352,"type":"VEC4","byteOffset":24},{"bufferView":3,"componentType":5126,"count":4352,"type":"VEC2","byteOffset":40},{"bufferView":2,"componentType":5123,"count":24096,"type":"SCALAR"},{"bufferView":5,"componentType":5126,"count":2915,"type":"VEC3","max":[0.00105568964,0.00137709465,-2.66173156E-05],"min":[-0.00105568964,-3.723835E-05,-0.00170863629]},{"bufferView":5,"componentType":5126,"count":2915,"type":"VEC3","byteOffset":12},{"bufferView":5,"componentType":5126,"count":2915,"type":"VEC4","byteOffset":24},{"bufferView":5,"componentType":5126,"count":2915,"type":"VEC2","byteOffset":40},{"bufferView":4,"componentType":5123,"count":16800,"type":"SCALAR"},{"bufferView":7,"componentType":5126,"count":131966,"type":"VEC3","max":[0.485836983,0.103364907,0.03004849],"min":[-0.485836983,-0.179556936,-1.1655122]},{"bufferView":7,"componentType":5126,"count":131966,"type":"VEC3","byteOffset":12},{"bufferView":7,"componentType":5126,"count":131966,"type":"VEC4","byteOffset":24},{"bufferView":7,"componentType":5126,"count":131966,"type":"VEC2","byteOffset":40},{"bufferView":6,"componentType":5125,"count":411312,"type":"SCALAR"},{"bufferView":6,"componentType":5125,"count":24096,"type":"SCALAR","byteOffset":1645248}],"materials":[{"name":"glass","pbrMetallicRoughness":{"baseColorFactor":[0,0,0,1],"metallicFactor":0,"roughnessFactor":0.669999957},"doubleSided":true},{"name":"glass 1","pbrMetallicRoughness":{"baseColorFactor":[0,0,0,0.572549045],"metallicFactor":0,"roughnessFactor":0.669999957},"alphaMode":"BLEND","doubleSided":true}],"meshes":[{"name":"body","primitives":[{"attributes":{"POSITION":0,"NORMAL":1,"TANGENT":2,"TEXCOORD_0":3},"indices":4,"material":0},{"attributes":{"POSITION":0,"NORMAL":1,"TANGENT":2,"TEXCOORD_0":3},"indices":5,"material":0},{"attributes":{"POSITION":0,"NORMAL":1,"TANGENT":2,"TEXCOORD_0":3},"indices":6,"material":0},{"attributes":{"POSITION":0,"NORMAL":1,"TANGENT":2,"TEXCOORD_0":3},"indices":7,"material":0}]},{"name":"glasses","primitives":[{"attributes":{"POSITION":8,"NORMAL":9,"TANGENT":10,"TEXCOORD_0":11},"indices":12,"material":1}]},{"name":"rubber","primitives":[{"attributes":{"POSITION":13,"NORMAL":14,"TANGENT":15,"TEXCOORD_0":16},"indices":17,"material":0}]},{"name":"Glasses","primitives":[{"attributes":{"POSITION":18,"NORMAL":19,"TANGENT":20,"TEXCOORD_0":21},"indices":22,"material":0},{"attributes":{"POSITION":18,"NORMAL":19,"TANGENT":20,"TEXCOORD_0":21},"indices":23,"material":1}]}],"scene":0,"scenes":[{"name":"Glasses","nodes":[3]}]}