{"asset":{"version":"2.0","generator":"Unity 2021.3.31f1 glTFast 5.0.5"},"nodes":[{"name":"FlatDress","mesh":0,"translation":[12.58167,0.053999424,-4.39468145],"rotation":[0,0.70799613,0,0.7062164],"scale":[0.01,0.0100000007,0.0100000007]}],"extensionsRequired":["KHR_texture_transform"],"extensionsUsed":["KHR_texture_transform"],"buffers":[{"uri":"FlatDress.bin","byteLength":160528}],"bufferViews":[{"buffer":0,"byteLength":26016},{"buffer":0,"byteLength":96080,"byteOffset":26016,"byteStride":40},{"buffer":0,"byteLength":38432,"byteOffset":122096,"byteStride":16}],"accessors":[{"bufferView":1,"componentType":5126,"count":2402,"type":"VEC3","max":[16.13114,62.4699936,25.3122768],"min":[-17.52122,-0.5600052,-30.7661228]},{"bufferView":1,"componentType":5126,"count":2402,"type":"VEC3","byteOffset":12},{"bufferView":1,"componentType":5126,"count":2402,"type":"VEC4","byteOffset":24},{"bufferView":2,"componentType":5126,"count":2402,"type":"VEC2"},{"bufferView":2,"componentType":5126,"count":2402,"type":"VEC2","byteOffset":8},{"bufferView":0,"componentType":5125,"count":6504,"type":"SCALAR"}],"images":[{"name":"fabric_138_normal-2K 1.png","uri":"fabric_138_normal-2K 1.png","mimeType":"image/png"},{"name":"fabric_138_basecolor-2K.jpg","uri":"fabric_138_basecolor-2K.jpg","mimeType":"image/jpeg"}],"materials":[{"name":"Fabric.002","pbrMetallicRoughness":{"metallicFactor":0,"roughnessFactor":0.705000043,"baseColorTexture":{"index":1,"extensions":{"KHR_texture_transform":{"offset":[0,-1],"scale":[2,2]}}}},"normalTexture":{"index":0},"doubleSided":true}],"meshes":[{"name":"FlatDress","primitives":[{"attributes":{"POSITION":0,"NORMAL":1,"TANGENT":2,"TEXCOORD_0":3,"TEXCOORD_1":4},"indices":5,"material":0}]}],"scene":0,"scenes":[{"name":"FlatDress","nodes":[0]}],"textures":[{"source":0},{"source":1}]}