{"asset":{"version":"2.0","generator":"Unity 2021.3.31f1 glTFast 5.0.5"},"nodes":[{"name":"FlatBeigeJumper","mesh":0,"translation":[5.702,0.271432042,-3.793037],"rotation":[0.00237146928,-1.48655875E-18,-2.82701168E-10,0.9999972]}],"buffers":[{"uri":"FlatBeigeJumper.bin","byteLength":75408}],"bufferViews":[{"buffer":0,"byteLength":13536},{"buffer":0,"byteLength":61872,"byteOffset":13536,"byteStride":48}],"accessors":[{"bufferView":1,"componentType":5126,"count":1289,"type":"VEC3","max":[0.6534649,0.671557069,0.16699478],"min":[-0.651266,-0.008252323,-0.164068192]},{"bufferView":1,"componentType":5126,"count":1289,"type":"VEC3","byteOffset":12},{"bufferView":1,"componentType":5126,"count":1289,"type":"VEC4","byteOffset":24},{"bufferView":1,"componentType":5126,"count":1289,"type":"VEC2","byteOffset":40},{"bufferView":0,"componentType":5123,"count":6768,"type":"SCALAR"}],"images":[{"name":"fabric_111_albedo-2K.jpg","uri":"fabric_111_albedo-2K.jpg","mimeType":"image/jpeg"}],"materials":[{"name":"Fabric.007","pbrMetallicRoughness":{"metallicFactor":0,"roughnessFactor":0.5,"baseColorTexture":{"index":0}},"doubleSided":true}],"meshes":[{"name":"FlatBeigeJumper","primitives":[{"attributes":{"POSITION":0,"NORMAL":1,"TANGENT":2,"TEXCOORD_0":3},"indices":4,"material":0}]}],"samplers":[{"minFilter":9987}],"scene":0,"scenes":[{"name":"FlatBeigeJumper","nodes":[0]}],"textures":[{"source":0,"sampler":0}]}