{"asset":{"version":"2.0","generator":"Unity 2021.3.31f1 glTFast 5.0.5"},"nodes":[{"name":"FoldedJeanPant","mesh":0,"translation":[9.420664,0.6376108,-0.5933361],"rotation":[0.00137548149,0.00179066509,-0.7071536,0.7070564]}],"buffers":[{"uri":"FoldedJeanPant.bin","byteLength":316968}],"bufferViews":[{"buffer":0,"byteLength":36936},{"buffer":0,"byteLength":233360,"byteOffset":36936,"byteStride":40},{"buffer":0,"byteLength":46672,"byteOffset":270296,"byteStride":8}],"accessors":[{"bufferView":1,"componentType":5126,"count":5834,"type":"VEC3","max":[-4.788488E-05,0.3241099,0.157470345],"min":[-0.06710204,-0.3376466,-0.161753714]},{"bufferView":1,"componentType":5126,"count":5834,"type":"VEC3","byteOffset":12},{"bufferView":1,"componentType":5126,"count":5834,"type":"VEC4","byteOffset":24},{"bufferView":2,"componentType":5126,"count":5834,"type":"VEC2"},{"bufferView":0,"componentType":5125,"count":9234,"type":"SCALAR"}],"images":[{"name":"glb.png","uri":"glb.png","mimeType":"image/png"},{"name":"glb.png","uri":"glb_0.png","mimeType":"image/png"}],"materials":[{"name":"Material.002 1","pbrMetallicRoughness":{"metallicFactor":0,"roughnessFactor":0.5,"baseColorTexture":{"index":1}},"normalTexture":{"index":0},"doubleSided":true}],"meshes":[{"name":"FoldedJeanPant","primitives":[{"attributes":{"POSITION":0,"NORMAL":1,"TANGENT":2,"TEXCOORD_0":3},"indices":4,"material":0}]}],"samplers":[{"minFilter":9987}],"scene":0,"scenes":[{"name":"FoldedJeanPant","nodes":[0]}],"textures":[{"source":0,"sampler":0},{"source":1,"sampler":0}]}