{"asset":{"version":"2.0","generator":"Unity 2021.3.31f1 glTFast 5.0.5"},"nodes":[{"name":"MESH_MF_HA_04","mesh":0,"translation":[0,1.6700002,0.0419998169],"rotation":[-0.7071068,0,0,0.7071068]}],"buffers":[{"uri":"MESH_MF_HA_04.bin","byteLength":35488}],"bufferViews":[{"buffer":0,"byteLength":4080},{"buffer":0,"byteLength":24160,"byteOffset":4080,"byteStride":40},{"buffer":0,"byteLength":7248,"byteOffset":28240,"byteStride":12}],"accessors":[{"bufferView":1,"componentType":5126,"count":604,"type":"VEC3","max":[0.08331361,0.136109754,0.156809568],"min":[-0.08331361,-0.1782896,0.0138140917]},{"bufferView":1,"componentType":5126,"count":604,"type":"VEC3","byteOffset":12},{"bufferView":1,"componentType":5126,"count":604,"type":"VEC4","byteOffset":24},{"bufferView":2,"componentType":5121,"count":604,"type":"VEC4"},{"bufferView":2,"componentType":5126,"count":604,"type":"VEC2","byteOffset":4},{"bufferView":0,"componentType":5123,"count":2040,"type":"SCALAR"}],"images":[{"name":"TEX_F_HA_05_DO.png","uri":"TEX_F_HA_05_DO.png","mimeType":"image/png"},{"name":"TEX_F_HA_05_NAO.jpg","uri":"TEX_F_HA_05_NAO.jpg","mimeType":"image/jpeg"}],"materials":[{"name":"MAT_F_HA_05","pbrMetallicRoughness":{"roughnessFactor":0,"baseColorTexture":{"index":0},"metallicRoughnessTexture":{"index":1}}}],"meshes":[{"name":"MESH_MF_HA_04","primitives":[{"attributes":{"POSITION":0,"NORMAL":1,"TANGENT":2,"TEXCOORD_0":4,"COLOR_0":3},"indices":5,"material":0}]}],"scene":0,"scenes":[{"name":"MESH_MF_HA_04","nodes":[0]}],"textures":[{"source":0},{"source":1}]}