{"asset":{"version":"2.0","generator":"Unity 2021.3.31f1 glTFast 5.0.5"},"nodes":[{"name":"sporthat","mesh":0}],"buffers":[{"uri":"sporthat.bin","byteLength":35488}],"bufferViews":[{"buffer":0,"byteLength":4080},{"buffer":0,"byteLength":24160,"byteOffset":4080,"byteStride":40},{"buffer":0,"byteLength":7248,"byteOffset":28240,"byteStride":12}],"accessors":[{"bufferView":1,"componentType":5126,"count":604,"type":"VEC3","max":[0.08331361,0.09410976,1.82680941],"min":[-0.08331361,-0.2202896,1.683814]},{"bufferView":1,"componentType":5126,"count":604,"type":"VEC3","byteOffset":12},{"bufferView":1,"componentType":5126,"count":604,"type":"VEC4","byteOffset":24},{"bufferView":2,"componentType":5121,"count":604,"type":"VEC4"},{"bufferView":2,"componentType":5126,"count":604,"type":"VEC2","byteOffset":4},{"bufferView":0,"componentType":5123,"count":2040,"type":"SCALAR"}],"images":[{"name":"TEX_F_HA_05_DO.png","uri":"TEX_F_HA_05_DO.png","mimeType":"image/png"},{"name":"TEX_F_HA_05_NAO.jpg","uri":"TEX_F_HA_05_NAO.jpg","mimeType":"image/jpeg"}],"materials":[{"name":"MAT_F_HA_05","pbrMetallicRoughness":{"roughnessFactor":0,"baseColorTexture":{"index":0},"metallicRoughnessTexture":{"index":1}}}],"meshes":[{"name":"MESH_MF_HA_04","primitives":[{"attributes":{"POSITION":0,"NORMAL":1,"TANGENT":2,"TEXCOORD_0":4,"COLOR_0":3},"indices":5,"material":0}]}],"scene":0,"scenes":[{"name":"Test","nodes":[0]}],"textures":[{"source":0},{"source":1}]}