{"asset":{"version":"2.0","generator":"Unity 2021.3.31f1 glTFast 5.0.5"},"nodes":[{"name":"FlatSuit","mesh":0}],"buffers":[{"uri":"FlatSuit.bin","byteLength":474624}],"bufferViews":[{"buffer":0,"byteLength":92736},{"buffer":0,"byteLength":318240,"byteOffset":92736,"byteStride":40},{"buffer":0,"byteLength":63648,"byteOffset":410976,"byteStride":8}],"accessors":[{"bufferView":1,"componentType":5126,"count":7956,"type":"VEC3","max":[0.296230018,0.8068046,0.0843800455],"min":[-0.294384956,-0.00619339943,-0.0558464043]},{"bufferView":1,"componentType":5126,"count":7956,"type":"VEC3","byteOffset":12},{"bufferView":1,"componentType":5126,"count":7956,"type":"VEC4","byteOffset":24},{"bufferView":2,"componentType":5126,"count":7956,"type":"VEC2"},{"bufferView":0,"componentType":5125,"count":23184,"type":"SCALAR"}],"images":[{"name":"glb.png","uri":"glb.png","mimeType":"image/png"},{"name":"glb_0.jpg","uri":"glb_0.jpg","mimeType":"image/jpeg"}],"materials":[{"name":"Material.034","pbrMetallicRoughness":{"metallicFactor":0,"roughnessFactor":0.5,"baseColorTexture":{"index":1}},"normalTexture":{"index":0},"doubleSided":true}],"meshes":[{"name":"FlatSuit","primitives":[{"attributes":{"POSITION":0,"NORMAL":1,"TANGENT":2,"TEXCOORD_0":3},"indices":4,"material":0}]}],"samplers":[{"minFilter":9987}],"scene":0,"scenes":[{"name":"FlatSuit","nodes":[0]}],"textures":[{"source":0},{"source":1,"sampler":0}]}