{"asset":{"version":"2.0","generator":"Unity 2021.3.31f1 glTFast 5.0.5"},"nodes":[{"name":"FlatSuit","mesh":0,"translation":[-0.5137822,0.175000012,-2.0170002]}],"buffers":[{"uri":"FlatSuit.bin","byteLength":474624}],"bufferViews":[{"buffer":0,"byteLength":92736},{"buffer":0,"byteLength":318240,"byteOffset":92736,"byteStride":40},{"buffer":0,"byteLength":63648,"byteOffset":410976,"byteStride":8}],"accessors":[{"bufferView":1,"componentType":5126,"count":7956,"type":"VEC3","max":[0.296230018,0.8068046,0.0843800455],"min":[-0.294384956,-0.00619339943,-0.0558464043]},{"bufferView":1,"componentType":5126,"count":7956,"type":"VEC3","byteOffset":12},{"bufferView":1,"componentType":5126,"count":7956,"type":"VEC4","byteOffset":24},{"bufferView":2,"componentType":5126,"count":7956,"type":"VEC2"},{"bufferView":0,"componentType":5125,"count":23184,"type":"SCALAR"}],"materials":[{"name":"Material.034","pbrMetallicRoughness":{"metallicFactor":0},"doubleSided":true}],"meshes":[{"name":"FlatSuit","primitives":[{"attributes":{"POSITION":0,"NORMAL":1,"TANGENT":2,"TEXCOORD_0":3},"indices":4,"material":0}]}],"scene":0,"scenes":[{"name":"FlatSuit","nodes":[0]}]}