{"asset":{"version":"2.0","generator":"Unity 2021.3.31f1 glTFast 5.0.5"},"nodes":[{"name":"HangingSuit","mesh":0,"translation":[0.103,0.302,0.122]}],"buffers":[{"uri":"HangingSuit.bin","byteLength":769488}],"bufferViews":[{"buffer":0,"byteLength":165552},{"buffer":0,"byteLength":603936,"byteOffset":165552,"byteStride":48}],"accessors":[{"bufferView":1,"componentType":5126,"count":12582,"type":"VEC3","max":[0.296230018,0.8929973,0.08538005],"min":[-0.294384956,-0.008193374,-0.0548464023]},{"bufferView":1,"componentType":5126,"count":12582,"type":"VEC3","byteOffset":12},{"bufferView":1,"componentType":5126,"count":12582,"type":"VEC4","byteOffset":24},{"bufferView":1,"componentType":5126,"count":12582,"type":"VEC2","byteOffset":40},{"bufferView":0,"componentType":5125,"count":18204,"type":"SCALAR"},{"bufferView":0,"componentType":5125,"count":23184,"type":"SCALAR","byteOffset":72816}],"images":[{"name":"glb.png","uri":"glb.png","mimeType":"image/png"},{"name":"glb.png","uri":"glb_0.png","mimeType":"image/png"}],"materials":[{"name":"Material.013","pbrMetallicRoughness":{"baseColorFactor":[0,0,0,1],"metallicFactor":0,"roughnessFactor":0.5},"doubleSided":true},{"name":"Material.034","pbrMetallicRoughness":{"metallicFactor":0,"roughnessFactor":0.5,"baseColorTexture":{"index":1}},"normalTexture":{"index":0},"doubleSided":true}],"meshes":[{"name":"HangingSuit","primitives":[{"attributes":{"POSITION":0,"NORMAL":1,"TANGENT":2,"TEXCOORD_0":3},"indices":4,"material":0},{"attributes":{"POSITION":0,"NORMAL":1,"TANGENT":2,"TEXCOORD_0":3},"indices":5,"material":1}]}],"samplers":[{"minFilter":9987}],"scene":0,"scenes":[{"name":"HangingSuit","nodes":[0]}],"textures":[{"source":0,"sampler":0},{"source":1,"sampler":0}]}