{"asset":{"version":"2.0","generator":"Unity 2021.3.31f1 glTFast 5.0.5"},"nodes":[{"name":"HangingRedBlouse","mesh":0,"translation":[0.11217016,1.281,0.116813466],"rotation":[0,-0.0008685589,0,0.999999642]}],"buffers":[{"uri":"HangingRedBlouse.bin","byteLength":291312}],"bufferViews":[{"buffer":0,"byteLength":83184},{"buffer":0,"byteLength":208128,"byteOffset":83184,"byteStride":48}],"accessors":[{"bufferView":1,"componentType":5126,"count":4336,"type":"VEC3","max":[0.259399831,0.7335986,0.049633652],"min":[-0.298920929,-0.00292980671,-0.0555170476]},{"bufferView":1,"componentType":5126,"count":4336,"type":"VEC3","byteOffset":12},{"bufferView":1,"componentType":5126,"count":4336,"type":"VEC4","byteOffset":24},{"bufferView":1,"componentType":5126,"count":4336,"type":"VEC2","byteOffset":40},{"bufferView":0,"componentType":5125,"count":9156,"type":"SCALAR"},{"bufferView":0,"componentType":5125,"count":2412,"type":"SCALAR","byteOffset":36624},{"bufferView":0,"componentType":5125,"count":9228,"type":"SCALAR","byteOffset":46272}],"images":[{"name":"fabric_138_normal-2K 1.png","uri":"fabric_138_normal-2K 1.png","mimeType":"image/png"},{"name":"glb.png","uri":"glb.png","mimeType":"image/png"}],"materials":[{"name":"Material.011","pbrMetallicRoughness":{"metallicFactor":0,"roughnessFactor":0.5,"baseColorTexture":{"index":1}},"normalTexture":{"index":0},"doubleSided":true},{"name":"Material.017","pbrMetallicRoughness":{"baseColorFactor":[0.7924528,0.7924528,0.7924528,1],"metallicFactor":0.482,"roughnessFactor":0},"doubleSided":true},{"name":"Material.013","pbrMetallicRoughness":{"baseColorFactor":[0,0,0,1],"metallicFactor":0,"roughnessFactor":0.5},"doubleSided":true}],"meshes":[{"name":"HangingRedBlouse","primitives":[{"attributes":{"POSITION":0,"NORMAL":1,"TANGENT":2,"TEXCOORD_0":3},"indices":4,"material":0},{"attributes":{"POSITION":0,"NORMAL":1,"TANGENT":2,"TEXCOORD_0":3},"indices":5,"material":1},{"attributes":{"POSITION":0,"NORMAL":1,"TANGENT":2,"TEXCOORD_0":3},"indices":6,"material":2}]}],"samplers":[{"minFilter":9987}],"scene":0,"scenes":[{"name":"HangingRedBlouse","nodes":[0]}],"textures":[{"source":0},{"source":1,"sampler":0}]}