{"asset":{"version":"2.0","generator":"Unity 2021.3.31f1 glTFast 5.0.5"},"nodes":[{"name":"Shoe","mesh":0,"translation":[16.4156265,-0.638001442,-1.04234791],"rotation":[0.7071068,0,0,0.7071068],"scale":[0.01,0.0100000007,0.0100000007]}],"buffers":[{"uri":"BlackShoe.bin","byteLength":178296}],"bufferViews":[{"buffer":0,"byteLength":36696},{"buffer":0,"byteLength":84960,"byteOffset":36696,"byteStride":24},{"buffer":0,"byteLength":56640,"byteOffset":121656,"byteStride":16}],"accessors":[{"bufferView":1,"componentType":5126,"count":3540,"type":"VEC3","max":[-429.5592,-316.3454,-82.41167],"min":[-451.179321,-353.477173,-121.868118]},{"bufferView":1,"componentType":5126,"count":3540,"type":"VEC3","byteOffset":12},{"bufferView":2,"componentType":5126,"count":3540,"type":"VEC2"},{"bufferView":2,"componentType":5126,"count":3540,"type":"VEC2","byteOffset":8},{"bufferView":0,"componentType":5125,"count":9174,"type":"SCALAR"}],"materials":[{"name":"Fabric047_2K_Color","pbrMetallicRoughness":{"metallicFactor":0}}],"meshes":[{"name":"Mesh.104","primitives":[{"attributes":{"POSITION":0,"NORMAL":1,"TEXCOORD_0":2,"TEXCOORD_1":3},"indices":4,"material":0}]}],"scene":0,"scenes":[{"name":"Shoe","nodes":[0]}]}