{"asset":{"version":"2.0","generator":"Unity 2021.3.31f1 glTFast 5.0.5"},"nodes":[{"name":"BlackShoe","mesh":0,"translation":[12.0156269,0.177999258,-4.40934849],"rotation":[0.7071068,0,0,0.7071068],"scale":[0.01,0.0100000007,0.0100000007]}],"buffers":[{"uri":"BlackShoe.bin","byteLength":178296}],"bufferViews":[{"buffer":0,"byteLength":36696},{"buffer":0,"byteLength":84960,"byteOffset":36696,"byteStride":24},{"buffer":0,"byteLength":56640,"byteOffset":121656,"byteStride":16}],"accessors":[{"bufferView":1,"componentType":5126,"count":3540,"type":"VEC3","max":[10.4408264,20.3546143,-0.8116684],"min":[-11.1793213,-16.77716,-40.26812]},{"bufferView":1,"componentType":5126,"count":3540,"type":"VEC3","byteOffset":12},{"bufferView":2,"componentType":5126,"count":3540,"type":"VEC2"},{"bufferView":2,"componentType":5126,"count":3540,"type":"VEC2","byteOffset":8},{"bufferView":0,"componentType":5125,"count":9174,"type":"SCALAR"}],"materials":[{"name":"Material.013","pbrMetallicRoughness":{"baseColorFactor":[0,0,0,1],"roughnessFactor":0.199999988},"doubleSided":true}],"meshes":[{"name":"blackshoe","primitives":[{"attributes":{"POSITION":0,"NORMAL":1,"TEXCOORD_0":2,"TEXCOORD_1":3},"indices":4,"material":0}]}],"scene":0,"scenes":[{"name":"BlackShoe","nodes":[0]}]}