{"asset":{"version":"2.0","generator":"Unity 2022.3.12f1 glTFast 6.0.1"},"nodes":[{"name":"shoe","mesh":0,"translation":[0,1.299,0]}],"buffers":[{"uri":"shoe.bin","byteLength":16242816}],"bufferViews":[{"buffer":0,"byteLength":2123616},{"buffer":0,"byteLength":14119200,"byteOffset":2123616,"byteStride":32}],"accessors":[{"bufferView":1,"componentType":5126,"count":441225,"type":"VEC3","max":[0.00850141048,-0.871363163,0.126822621],"min":[-0.266348451,-1.00903225,-0.24011448]},{"bufferView":1,"componentType":5126,"count":441225,"type":"VEC3","byteOffset":12},{"bufferView":1,"componentType":5126,"count":441225,"type":"VEC2","byteOffset":24},{"bufferView":0,"componentType":5125,"count":530904,"type":"SCALAR"}],"images":[{"name":"shoes.jpg","uri":"shoes.jpg","mimeType":"image/jpeg"}],"materials":[{"name":"New Material","pbrMetallicRoughness":{"metallicFactor":0,"roughnessFactor":0.5,"baseColorTexture":{"index":0}}}],"meshes":[{"name":"shoe","primitives":[{"attributes":{"POSITION":0,"NORMAL":1,"TEXCOORD_0":2},"indices":3,"material":0}]}],"scene":0,"scenes":[{"name":"shoe","nodes":[0]}],"textures":[{"source":0}]}