{
	"asset":{
		"generator":"Khronos glTF Blender I/O v4.0.44",
		"version":"2.0"
	},
	"scene":0,
	"scenes":[
		{
			"name":"Scene",
			"nodes":[
				0
			]
		}
	],
	"nodes":[
		{
			"mesh":0,
			"name":"shoe"
		}
	],
	"materials":[
		{
			"name":"New Material",
			"pbrMetallicRoughness":{
				"baseColorTexture":{
					"index":0
				},
				"metallicFactor":0,
				"roughnessFactor":0.5
			}
		}
	],
	"meshes":[
		{
			"name":"shoe",
			"primitives":[
				{
					"attributes":{
						"POSITION":0,
						"NORMAL":1,
						"TEXCOORD_0":2
					},
					"indices":3,
					"material":0
				}
			]
		}
	],
	"textures":[
		{
			"sampler":0,
			"source":0
		}
	],
	"images":[
		{
			"mimeType":"image/jpeg",
			"name":"shoes.jpg",
			"uri":"shoes.jpg"
		}
	],
	"accessors":[
		{
			"bufferView":0,
			"componentType":5126,
			"count":481424,
			"max":[
				0.1373942345380783,
				0.08048111200332642,
				0.17958499491214752
			],
			"min":[
				-0.13745562732219696,
				-0.05718803405761719,
				-0.18735210597515106
			],
			"type":"VEC3"
		},
		{
			"bufferView":1,
			"componentType":5126,
			"count":481424,
			"type":"VEC3"
		},
		{
			"bufferView":2,
			"componentType":5126,
			"count":481424,
			"type":"VEC2"
		},
		{
			"bufferView":3,
			"componentType":5125,
			"count":530904,
			"type":"SCALAR"
		}
	],
	"bufferViews":[
		{
			"buffer":0,
			"byteLength":5777088,
			"byteOffset":0,
			"target":34962
		},
		{
			"buffer":0,
			"byteLength":5777088,
			"byteOffset":5777088,
			"target":34962
		},
		{
			"buffer":0,
			"byteLength":3851392,
			"byteOffset":11554176,
			"target":34962
		},
		{
			"buffer":0,
			"byteLength":2123616,
			"byteOffset":15405568,
			"target":34963
		}
	],
	"samplers":[
		{
			"magFilter":9729,
			"minFilter":9987
		}
	],
	"buffers":[
		{
			"byteLength":17529184,
			"uri":"shoe.bin"
		}
	]
}
