{"asset":{"version":"2.0","generator":"Unity 2022.3.12f1 glTFast 6.0.1"},"nodes":[{"name":"shoes_tongue_right","mesh":0},{"name":"shoes_suture_right","mesh":1},{"name":"shoes_spike_green_right","mesh":2},{"name":"shoes_spike_blue_right","mesh":3},{"name":"shoes_suede_right","mesh":4},{"name":"shoes_swage_right","mesh":5},{"name":"shoes_body_right","mesh":6},{"name":"shoes_sole_right","mesh":7},{"name":"shoes_spike_green_left","mesh":8},{"name":"shoes_swage_left","mesh":9},{"name":"shoes_tongue_left","mesh":10},{"name":"shoes_suede_left","mesh":11},{"name":"shoes_suture_left","mesh":12},{"name":"shoes_spike_blue_left","mesh":13},{"name":"shoes_body_left","mesh":14},{"name":"shoes_sole_left","mesh":15},{"name":"shoe","children":[0,1,2,3,4,5,6,7,8,9,10,11,12,13,14,15],"rotation":[0,0.7071068,0.7071068,0],"scale":[0.0119152805,0.0119152805,0.0119152805]}],"buffers":[{"uri":"shoe.bin","byteLength":16242816}],"bufferViews":[{"buffer":0,"byteLength":62976},{"buffer":0,"byteLength":67008,"byteOffset":62976},{"buffer":0,"byteLength":27024,"byteOffset":129984},{"buffer":0,"byteLength":270240,"byteOffset":157008},{"buffer":0,"byteLength":59520,"byteOffset":427248},{"buffer":0,"byteLength":138240,"byteOffset":486768},{"buffer":0,"byteLength":315264,"byteOffset":625008},{"buffer":0,"byteLength":121536,"byteOffset":940272},{"buffer":0,"byteLength":27024,"byteOffset":1061808},{"buffer":0,"byteLength":138240,"byteOffset":1088832},{"buffer":0,"byteLength":62976,"byteOffset":1227072},{"buffer":0,"byteLength":60288,"byteOffset":1290048},{"buffer":0,"byteLength":67008,"byteOffset":1350336},{"buffer":0,"byteLength":270240,"byteOffset":1417344},{"buffer":0,"byteLength":314496,"byteOffset":1687584},{"buffer":0,"byteLength":121536,"byteOffset":2002080},{"buffer":0,"byteLength":312960,"byteOffset":2123616,"byteStride":24},{"buffer":0,"byteLength":104320,"byteOffset":2436576,"byteStride":8},{"buffer":0,"byteLength":329712,"byteOffset":2540896,"byteStride":24},{"buffer":0,"byteLength":109904,"byteOffset":2870608,"byteStride":8},{"buffer":0,"byteLength":136032,"byteOffset":2980512,"byteStride":24},{"buffer":0,"byteLength":45344,"byteOffset":3116544,"byteStride":8},{"buffer":0,"byteLength":1359288,"byteOffset":3161888,"byteStride":24},{"buffer":0,"byteLength":453096,"byteOffset":4521176,"byteStride":8},{"buffer":0,"byteLength":297072,"byteOffset":4974272,"byteStride":24},{"buffer":0,"byteLength":99024,"byteOffset":5271344,"byteStride":8},{"buffer":0,"byteLength":682632,"byteOffset":5370368,"byteStride":24},{"buffer":0,"byteLength":227544,"byteOffset":6053000,"byteStride":8},{"buffer":0,"byteLength":1573176,"byteOffset":6280544,"byteStride":24},{"buffer":0,"byteLength":524392,"byteOffset":7853720,"byteStride":8},{"buffer":0,"byteLength":605880,"byteOffset":8378112,"byteStride":24},{"buffer":0,"byteLength":201960,"byteOffset":8983992,"byteStride":8},{"buffer":0,"byteLength":135624,"byteOffset":9185952,"byteStride":24},{"buffer":0,"byteLength":45208,"byteOffset":9321576,"byteStride":8},{"buffer":0,"byteLength":682848,"byteOffset":9366784,"byteStride":24},{"buffer":0,"byteLength":227616,"byteOffset":10049632,"byteStride":8},{"buffer":0,"byteLength":313032,"byteOffset":10277248,"byteStride":24},{"buffer":0,"byteLength":104344,"byteOffset":10590280,"byteStride":8},{"buffer":0,"byteLength":301176,"byteOffset":10694624,"byteStride":24},{"buffer":0,"byteLength":100392,"byteOffset":10995800,"byteStride":8},{"buffer":0,"byteLength":329520,"byteOffset":11096192,"byteStride":24},{"buffer":0,"byteLength":109840,"byteOffset":11425712,"byteStride":8},{"buffer":0,"byteLength":1355256,"byteOffset":11535552,"byteStride":24},{"buffer":0,"byteLength":451752,"byteOffset":12890808,"byteStride":8},{"buffer":0,"byteLength":1568904,"byteOffset":13342560,"byteStride":24},{"buffer":0,"byteLength":522968,"byteOffset":14911464,"byteStride":8},{"buffer":0,"byteLength":606288,"byteOffset":15434432,"byteStride":24},{"buffer":0,"byteLength":202096,"byteOffset":16040720,"byteStride":8}],"accessors":[{"bufferView":16,"componentType":5126,"count":13040,"type":"VEC3","max":[-4.0898,3.12219954,13.6263],"min":[-8.9116,-5.6589,8.4218]},{"bufferView":16,"componentType":5126,"count":13040,"type":"VEC3","byteOffset":12},{"bufferView":17,"componentType":5126,"count":13040,"type":"VEC2"},{"bufferView":0,"componentType":5125,"count":15744,"type":"SCALAR"},{"bufferView":18,"componentType":5126,"count":13738,"type":"VEC3","max":[-4.21610069,3.87389946,13.1602993],"min":[-8.451,-5.3167,4.5142]},{"bufferView":18,"componentType":5126,"count":13738,"type":"VEC3","byteOffset":12},{"bufferView":19,"componentType":5126,"count":13738,"type":"VEC2"},{"bufferView":1,"componentType":5125,"count":16752,"type":"SCALAR"},{"bufferView":20,"componentType":5126,"count":5668,"type":"VEC3","max":[-5.0051,-11.6525,3.4636],"min":[-7.1015,-13.7979012,2.6006]},{"bufferView":20,"componentType":5126,"count":5668,"type":"VEC3","byteOffset":12},{"bufferView":21,"componentType":5126,"count":5668,"type":"VEC2"},{"bufferView":2,"componentType":5125,"count":6756,"type":"SCALAR"},{"bufferView":22,"componentType":5126,"count":56637,"type":"VEC3","max":[-3.09220028,13.2910986,3.03320026],"min":[-10.5911,-10.8065,2.0723]},{"bufferView":22,"componentType":5126,"count":56637,"type":"VEC3","byteOffset":12},{"bufferView":23,"componentType":5126,"count":56637,"type":"VEC2"},{"bufferView":3,"componentType":5125,"count":67560,"type":"SCALAR"},{"bufferView":24,"componentType":5126,"count":12378,"type":"VEC3","max":[-2.1601,6.1177,12.8836],"min":[-11.4507,-6.1205,4.0795]},{"bufferView":24,"componentType":5126,"count":12378,"type":"VEC3","byteOffset":12},{"bufferView":25,"componentType":5126,"count":12378,"type":"VEC2"},{"bufferView":4,"componentType":5125,"count":14880,"type":"SCALAR"},{"bufferView":26,"componentType":5126,"count":28443,"type":"VEC3","max":[-4.2105,0.549399853,12.3439],"min":[-8.4391,-5.4593,9.6878]},{"bufferView":26,"componentType":5126,"count":28443,"type":"VEC3","byteOffset":12},{"bufferView":27,"componentType":5126,"count":28443,"type":"VEC2"},{"bufferView":5,"componentType":5125,"count":34560,"type":"SCALAR"},{"bufferView":28,"componentType":5126,"count":65549,"type":"VEC3","max":[-1.40530014,15.0556993,13.0997009],"min":[-11.5135,-15.4947,3.3484]},{"bufferView":28,"componentType":5126,"count":65549,"type":"VEC3","byteOffset":12},{"bufferView":29,"componentType":5126,"count":65549,"type":"VEC2"},{"bufferView":6,"componentType":5125,"count":78816,"type":"SCALAR"},{"bufferView":30,"componentType":5126,"count":25245,"type":"VEC3","max":[-1.3624,14.8786993,4.9797],"min":[-11.5335,-15.7398,2.62489986]},{"bufferView":30,"componentType":5126,"count":25245,"type":"VEC3","byteOffset":12},{"bufferView":31,"componentType":5126,"count":25245,"type":"VEC2"},{"bufferView":7,"componentType":5125,"count":30384,"type":"SCALAR"},{"bufferView":32,"componentType":5126,"count":5651,"type":"VEC3","max":[7.1015,-11.6525,3.4636],"min":[5.0051,-13.7979012,2.6006]},{"bufferView":32,"componentType":5126,"count":5651,"type":"VEC3","byteOffset":12},{"bufferView":33,"componentType":5126,"count":5651,"type":"VEC2"},{"bufferView":8,"componentType":5125,"count":6756,"type":"SCALAR"},{"bufferView":34,"componentType":5126,"count":28452,"type":"VEC3","max":[8.4391,0.549399853,12.3439007],"min":[4.2105,-5.4593,9.6877]},{"bufferView":34,"componentType":5126,"count":28452,"type":"VEC3","byteOffset":12},{"bufferView":35,"componentType":5126,"count":28452,"type":"VEC2"},{"bufferView":9,"componentType":5125,"count":34560,"type":"SCALAR"},{"bufferView":36,"componentType":5126,"count":13043,"type":"VEC3","max":[8.9116,3.12219954,13.6263],"min":[4.0897007,-5.6589,8.4218]},{"bufferView":36,"componentType":5126,"count":13043,"type":"VEC3","byteOffset":12},{"bufferView":37,"componentType":5126,"count":13043,"type":"VEC2"},{"bufferView":10,"componentType":5125,"count":15744,"type":"SCALAR"},{"bufferView":38,"componentType":5126,"count":12549,"type":"VEC3","max":[11.4507,6.1177,12.8836],"min":[2.1601,-6.1205,4.0795]},{"bufferView":38,"componentType":5126,"count":12549,"type":"VEC3","byteOffset":12},{"bufferView":39,"componentType":5126,"count":12549,"type":"VEC2"},{"bufferView":11,"componentType":5125,"count":15072,"type":"SCALAR"},{"bufferView":40,"componentType":5126,"count":13730,"type":"VEC3","max":[8.451,3.87390041,13.1602993],"min":[4.21610069,-5.3166,4.5142]},{"bufferView":40,"componentType":5126,"count":13730,"type":"VEC3","byteOffset":12},{"bufferView":41,"componentType":5126,"count":13730,"type":"VEC2"},{"bufferView":12,"componentType":5125,"count":16752,"type":"SCALAR"},{"bufferView":42,"componentType":5126,"count":56469,"type":"VEC3","max":[10.5911,13.2910986,3.03320026],"min":[3.09220028,-10.8065,2.0723]},{"bufferView":42,"componentType":5126,"count":56469,"type":"VEC3","byteOffset":12},{"bufferView":43,"componentType":5126,"count":56469,"type":"VEC2"},{"bufferView":13,"componentType":5125,"count":67560,"type":"SCALAR"},{"bufferView":44,"componentType":5126,"count":65371,"type":"VEC3","max":[11.5135,15.0556993,13.0997009],"min":[1.40530014,-15.4947,3.3484]},{"bufferView":44,"componentType":5126,"count":65371,"type":"VEC3","byteOffset":12},{"bufferView":45,"componentType":5126,"count":65371,"type":"VEC2"},{"bufferView":14,"componentType":5125,"count":78624,"type":"SCALAR"},{"bufferView":46,"componentType":5126,"count":25262,"type":"VEC3","max":[11.5335,14.8786993,4.9797],"min":[1.3624,-15.7398,2.62479973]},{"bufferView":46,"componentType":5126,"count":25262,"type":"VEC3","byteOffset":12},{"bufferView":47,"componentType":5126,"count":25262,"type":"VEC2"},{"bufferView":15,"componentType":5125,"count":30384,"type":"SCALAR"}],"materials":[{"name":"glTF-Default-Material","pbrMetallicRoughness":{"metallicFactor":0}}],"meshes":[{"primitives":[{"attributes":{"POSITION":0,"NORMAL":1,"TEXCOORD_0":2},"indices":3,"material":0}]},{"primitives":[{"attributes":{"POSITION":4,"NORMAL":5,"TEXCOORD_0":6},"indices":7,"material":0}]},{"primitives":[{"attributes":{"POSITION":8,"NORMAL":9,"TEXCOORD_0":10},"indices":11,"material":0}]},{"primitives":[{"attributes":{"POSITION":12,"NORMAL":13,"TEXCOORD_0":14},"indices":15,"material":0}]},{"primitives":[{"attributes":{"POSITION":16,"NORMAL":17,"TEXCOORD_0":18},"indices":19,"material":0}]},{"primitives":[{"attributes":{"POSITION":20,"NORMAL":21,"TEXCOORD_0":22},"indices":23,"material":0}]},{"primitives":[{"attributes":{"POSITION":24,"NORMAL":25,"TEXCOORD_0":26},"indices":27,"material":0}]},{"primitives":[{"attributes":{"POSITION":28,"NORMAL":29,"TEXCOORD_0":30},"indices":31,"material":0}]},{"primitives":[{"attributes":{"POSITION":32,"NORMAL":33,"TEXCOORD_0":34},"indices":35,"material":0}]},{"primitives":[{"attributes":{"POSITION":36,"NORMAL":37,"TEXCOORD_0":38},"indices":39,"material":0}]},{"primitives":[{"attributes":{"POSITION":40,"NORMAL":41,"TEXCOORD_0":42},"indices":43,"material":0}]},{"primitives":[{"attributes":{"POSITION":44,"NORMAL":45,"TEXCOORD_0":46},"indices":47,"material":0}]},{"primitives":[{"attributes":{"POSITION":48,"NORMAL":49,"TEXCOORD_0":50},"indices":51,"material":0}]},{"primitives":[{"attributes":{"POSITION":52,"NORMAL":53,"TEXCOORD_0":54},"indices":55,"material":0}]},{"primitives":[{"attributes":{"POSITION":56,"NORMAL":57,"TEXCOORD_0":58},"indices":59,"material":0}]},{"primitives":[{"attributes":{"POSITION":60,"NORMAL":61,"TEXCOORD_0":62},"indices":63,"material":0}]}],"scene":0,"scenes":[{"name":"shoe","nodes":[16]}]}