{"asset":{"version":"2.0","generator":"Unity 2021.3.31f1 glTFast 5.0.5"},"nodes":[{"name":"Scarf","mesh":0,"translation":[4.67121744,0.570000052,0.501]}],"buffers":[{"uri":"Scarf.bin","byteLength":215472}],"bufferViews":[{"buffer":0,"byteLength":34368},{"buffer":0,"byteLength":150920,"byteOffset":34368,"byteStride":40},{"buffer":0,"byteLength":30184,"byteOffset":185288,"byteStride":8}],"accessors":[{"bufferView":1,"componentType":5126,"count":3773,"type":"VEC3","max":[0.187230408,0.458127856,0.1761345],"min":[-0.184666991,-0.0031170845,-0.135790616]},{"bufferView":1,"componentType":5126,"count":3773,"type":"VEC3","byteOffset":12},{"bufferView":1,"componentType":5126,"count":3773,"type":"VEC4","byteOffset":24},{"bufferView":2,"componentType":5126,"count":3773,"type":"VEC2"},{"bufferView":0,"componentType":5125,"count":8592,"type":"SCALAR"}],"materials":[{"name":"Material.013","pbrMetallicRoughness":{"baseColorFactor":[0,0,0,1],"metallicFactor":0},"doubleSided":true}],"meshes":[{"name":"FlatBlackScarf","primitives":[{"attributes":{"POSITION":0,"NORMAL":1,"TANGENT":2,"TEXCOORD_0":3},"indices":4,"material":0}]}],"scene":0,"scenes":[{"name":"Scarf","nodes":[0]}]}