{"asset":{"version":"2.0","generator":"Unity 2022.3.12f1 glTFast 6.0.1"},"nodes":[{"name":"Pant","mesh":0,"translation":[-2.66179633,0.629,-6.48242474]}],"buffers":[{"uri":"pant.bin","byteLength":784056}],"bufferViews":[{"buffer":0,"byteLength":101304},{"buffer":0,"byteLength":682752,"byteOffset":101304,"byteStride":32}],"accessors":[{"bufferView":1,"componentType":5126,"count":21336,"type":"VEC3","max":[0.0925654247,0.336026,0.1378134],"min":[-0.2907009,-0.5862142,-0.0965777338]},{"bufferView":1,"componentType":5126,"count":21336,"type":"VEC3","byteOffset":12},{"bufferView":1,"componentType":5126,"count":21336,"type":"VEC2","byteOffset":24},{"bufferView":0,"componentType":5125,"count":25326,"type":"SCALAR"}],"materials":[{"name":"glTF-Default-Material","pbrMetallicRoughness":{"metallicFactor":0}}],"meshes":[{"name":"GameObject","primitives":[{"attributes":{"POSITION":0,"NORMAL":1,"TEXCOORD_0":2},"indices":3,"material":0}]}],"scene":0,"scenes":[{"name":"Pant","nodes":[0]}]}