{"asset":{"version":"2.0","generator":"Unity 2022.3.12f1 glTFast 6.0.1"},"nodes":[{"name":"Primitive_1","mesh":0},{"name":"Primitive_2","mesh":1},{"name":"Primitive_3","mesh":2},{"name":"Primitive_4","mesh":3},{"name":"Primitive_5","mesh":4},{"name":"Primitive_6","mesh":5},{"name":"Primitive_7","mesh":6},{"name":"Primitive_8","mesh":7},{"name":"Primitive_9","mesh":8},{"name":"Primitive_10","mesh":9},{"name":"Primitive_11","mesh":10},{"name":"Primitive_12","mesh":11},{"name":"Primitive_13","mesh":12},{"name":"Primitive_14","mesh":13},{"name":"Primitive_15","mesh":14},{"name":"pant","children":[0,1,2,3,4,5,6,7,8,9,10,11,12,13,14],"mesh":15,"translation":[0.001,0.029078,24.704],"rotation":[-0.7071068,0,0,0.7071068],"scale":[0.0161534157,0.0161534157,0.0161534157]}],"buffers":[{"uri":"pant.bin","byteLength":784056}],"bufferViews":[{"buffer":0,"byteLength":1320},{"buffer":0,"byteLength":1524,"byteOffset":1320},{"buffer":0,"byteLength":1320,"byteOffset":2844},{"buffer":0,"byteLength":876,"byteOffset":4164},{"buffer":0,"byteLength":864,"byteOffset":5040},{"buffer":0,"byteLength":900,"byteOffset":5904},{"buffer":0,"byteLength":804,"byteOffset":6804},{"buffer":0,"byteLength":21408,"byteOffset":7608},{"buffer":0,"byteLength":1344,"byteOffset":29016},{"buffer":0,"byteLength":21948,"byteOffset":30360},{"buffer":0,"byteLength":1356,"byteOffset":52308},{"buffer":0,"byteLength":21960,"byteOffset":53664},{"buffer":0,"byteLength":1356,"byteOffset":75624},{"buffer":0,"byteLength":1344,"byteOffset":76980},{"buffer":0,"byteLength":21408,"byteOffset":78324},{"buffer":0,"byteLength":1572,"byteOffset":99732},{"buffer":0,"byteLength":4296,"byteOffset":101304,"byteStride":24},{"buffer":0,"byteLength":1432,"byteOffset":105600,"byteStride":8},{"buffer":0,"byteLength":6816,"byteOffset":107032,"byteStride":24},{"buffer":0,"byteLength":2272,"byteOffset":113848,"byteStride":8},{"buffer":0,"byteLength":7728,"byteOffset":116120,"byteStride":24},{"buffer":0,"byteLength":2576,"byteOffset":123848,"byteStride":8},{"buffer":0,"byteLength":6792,"byteOffset":126424,"byteStride":24},{"buffer":0,"byteLength":2264,"byteOffset":133216,"byteStride":8},{"buffer":0,"byteLength":4368,"byteOffset":135480,"byteStride":24},{"buffer":0,"byteLength":1456,"byteOffset":139848,"byteStride":8},{"buffer":0,"byteLength":4584,"byteOffset":141304,"byteStride":24},{"buffer":0,"byteLength":1528,"byteOffset":145888,"byteStride":8},{"buffer":0,"byteLength":4128,"byteOffset":147416,"byteStride":24},{"buffer":0,"byteLength":1376,"byteOffset":151544,"byteStride":8},{"buffer":0,"byteLength":108192,"byteOffset":152920,"byteStride":24},{"buffer":0,"byteLength":36064,"byteOffset":261112,"byteStride":8},{"buffer":0,"byteLength":7080,"byteOffset":297176,"byteStride":24},{"buffer":0,"byteLength":2360,"byteOffset":304256,"byteStride":8},{"buffer":0,"byteLength":111120,"byteOffset":306616,"byteStride":24},{"buffer":0,"byteLength":37040,"byteOffset":417736,"byteStride":8},{"buffer":0,"byteLength":6888,"byteOffset":454776,"byteStride":24},{"buffer":0,"byteLength":2296,"byteOffset":461664,"byteStride":8},{"buffer":0,"byteLength":110736,"byteOffset":463960,"byteStride":24},{"buffer":0,"byteLength":36912,"byteOffset":574696,"byteStride":8},{"buffer":0,"byteLength":6720,"byteOffset":611608,"byteStride":24},{"buffer":0,"byteLength":2240,"byteOffset":618328,"byteStride":8},{"buffer":0,"byteLength":6696,"byteOffset":620568,"byteStride":24},{"buffer":0,"byteLength":2232,"byteOffset":627264,"byteStride":8},{"buffer":0,"byteLength":107952,"byteOffset":629496,"byteStride":24},{"buffer":0,"byteLength":35984,"byteOffset":737448,"byteStride":8},{"buffer":0,"byteLength":7968,"byteOffset":773432,"byteStride":24},{"buffer":0,"byteLength":2656,"byteOffset":781400,"byteStride":8}],"accessors":[{"bufferView":18,"componentType":5126,"count":284,"type":"VEC3","max":[-0.0299539566,1.73446894,58.90556],"min":[-9.547171,-5.350837,55.202816]},{"bufferView":18,"componentType":5126,"count":284,"type":"VEC3","byteOffset":12},{"bufferView":19,"componentType":5126,"count":284,"type":"VEC2"},{"bufferView":0,"componentType":5125,"count":330,"type":"SCALAR"},{"bufferView":20,"componentType":5126,"count":322,"type":"VEC3","max":[9.53447,9.142466,58.96221],"min":[-0.021068573,1.6755209,55.30323]},{"bufferView":20,"componentType":5126,"count":322,"type":"VEC3","byteOffset":12},{"bufferView":21,"componentType":5126,"count":322,"type":"VEC2"},{"bufferView":1,"componentType":5125,"count":381,"type":"SCALAR"},{"bufferView":22,"componentType":5126,"count":283,"type":"VEC3","max":[9.53447,1.71897411,58.9622078],"min":[-0.05407715,-5.344535,55.202816]},{"bufferView":22,"componentType":5126,"count":283,"type":"VEC3","byteOffset":12},{"bufferView":23,"componentType":5126,"count":283,"type":"VEC2"},{"bufferView":2,"componentType":5125,"count":330,"type":"SCALAR"},{"bufferView":24,"componentType":5126,"count":182,"type":"VEC3","max":[-2.84990978,8.95722,57.7291069],"min":[-3.929099,8.295305,54.82735]},{"bufferView":24,"componentType":5126,"count":182,"type":"VEC3","byteOffset":12},{"bufferView":25,"componentType":5126,"count":182,"type":"VEC2"},{"bufferView":3,"componentType":5125,"count":219,"type":"SCALAR"},{"bufferView":16,"componentType":5126,"count":179,"type":"VEC3","max":[-7.142535,6.611053,58.2868423],"min":[-8.690981,5.594932,55.4914322]},{"bufferView":16,"componentType":5126,"count":179,"type":"VEC3","byteOffset":12},{"bufferView":17,"componentType":5126,"count":179,"type":"VEC2"},{"bufferView":4,"componentType":5125,"count":216,"type":"SCALAR"},{"bufferView":26,"componentType":5126,"count":191,"type":"VEC3","max":[3.935813,8.940775,57.68614],"min":[2.854766,8.263933,54.887722]},{"bufferView":26,"componentType":5126,"count":191,"type":"VEC3","byteOffset":12},{"bufferView":27,"componentType":5126,"count":191,"type":"VEC2"},{"bufferView":5,"componentType":5125,"count":225,"type":"SCALAR"},{"bufferView":28,"componentType":5126,"count":172,"type":"VEC3","max":[8.588391,6.527638,58.3119],"min":[7.119566,5.477037,55.5180855]},{"bufferView":28,"componentType":5126,"count":172,"type":"VEC3","byteOffset":12},{"bufferView":29,"componentType":5126,"count":172,"type":"VEC2"},{"bufferView":6,"componentType":5125,"count":201,"type":"SCALAR"},{"bufferView":30,"componentType":5126,"count":4508,"type":"VEC3","max":[-0.0125021935,3.23726559,56.65071],"min":[-11.8596516,-5.341384,4.85397148]},{"bufferView":30,"componentType":5126,"count":4508,"type":"VEC3","byteOffset":12},{"bufferView":31,"componentType":5126,"count":4508,"type":"VEC2"},{"bufferView":7,"componentType":5125,"count":5352,"type":"SCALAR"},{"bufferView":32,"componentType":5126,"count":295,"type":"VEC3","max":[-5.18555164,1.3303051,5.510465],"min":[-11.5237722,-3.244968,1.86963308]},{"bufferView":32,"componentType":5126,"count":295,"type":"VEC3","byteOffset":12},{"bufferView":33,"componentType":5126,"count":295,"type":"VEC2"},{"bufferView":8,"componentType":5125,"count":336,"type":"SCALAR"},{"bufferView":34,"componentType":5126,"count":4630,"type":"VEC3","max":[-0.01625204,9.159475,56.5818977],"min":[-11.8610668,-0.7447171,4.890606]},{"bufferView":34,"componentType":5126,"count":4630,"type":"VEC3","byteOffset":12},{"bufferView":35,"componentType":5126,"count":4630,"type":"VEC2"},{"bufferView":9,"componentType":5125,"count":5487,"type":"SCALAR"},{"bufferView":36,"componentType":5126,"count":287,"type":"VEC3","max":[-5.1855526,4.418298,6.212275],"min":[-11.5872917,-0.662498,1.994081]},{"bufferView":36,"componentType":5126,"count":287,"type":"VEC3","byteOffset":12},{"bufferView":37,"componentType":5126,"count":287,"type":"VEC2"},{"bufferView":10,"componentType":5125,"count":339,"type":"SCALAR"},{"bufferView":38,"componentType":5126,"count":4614,"type":"VEC3","max":[11.8655767,9.159475,56.641407],"min":[-0.046582222,-0.6703682,4.929737]},{"bufferView":38,"componentType":5126,"count":4614,"type":"VEC3","byteOffset":12},{"bufferView":39,"componentType":5126,"count":4614,"type":"VEC2"},{"bufferView":11,"componentType":5125,"count":5490,"type":"SCALAR"},{"bufferView":40,"componentType":5126,"count":280,"type":"VEC3","max":[11.2836142,4.547749,5.935668],"min":[5.22896671,-0.5195699,2.06600475]},{"bufferView":40,"componentType":5126,"count":280,"type":"VEC3","byteOffset":12},{"bufferView":41,"componentType":5126,"count":280,"type":"VEC2"},{"bufferView":12,"componentType":5125,"count":339,"type":"SCALAR"},{"bufferView":42,"componentType":5126,"count":279,"type":"VEC3","max":[11.2836142,1.56656909,5.56425],"min":[5.17264271,-3.203408,1.91815186]},{"bufferView":42,"componentType":5126,"count":279,"type":"VEC3","byteOffset":12},{"bufferView":43,"componentType":5126,"count":279,"type":"VEC2"},{"bufferView":13,"componentType":5125,"count":336,"type":"SCALAR"},{"bufferView":44,"componentType":5126,"count":4498,"type":"VEC3","max":[11.8642464,3.17148066,56.6720428],"min":[-0.05407715,-5.341039,4.88845634]},{"bufferView":44,"componentType":5126,"count":4498,"type":"VEC3","byteOffset":12},{"bufferView":45,"componentType":5126,"count":4498,"type":"VEC2"},{"bufferView":14,"componentType":5125,"count":5352,"type":"SCALAR"},{"bufferView":46,"componentType":5126,"count":332,"type":"VEC3","max":[0.00349521637,9.142466,58.9055557],"min":[-9.547171,1.7172699,55.30323]},{"bufferView":46,"componentType":5126,"count":332,"type":"VEC3","byteOffset":12},{"bufferView":47,"componentType":5126,"count":332,"type":"VEC2"},{"bufferView":15,"componentType":5125,"count":393,"type":"SCALAR"}],"materials":[{"name":"glTF-Default-Material","pbrMetallicRoughness":{"metallicFactor":0}}],"meshes":[{"primitives":[{"attributes":{"POSITION":0,"NORMAL":1,"TEXCOORD_0":2},"indices":3,"material":0}]},{"primitives":[{"attributes":{"POSITION":4,"NORMAL":5,"TEXCOORD_0":6},"indices":7,"material":0}]},{"primitives":[{"attributes":{"POSITION":8,"NORMAL":9,"TEXCOORD_0":10},"indices":11,"material":0}]},{"primitives":[{"attributes":{"POSITION":12,"NORMAL":13,"TEXCOORD_0":14},"indices":15,"material":0}]},{"primitives":[{"attributes":{"POSITION":16,"NORMAL":17,"TEXCOORD_0":18},"indices":19,"material":0}]},{"primitives":[{"attributes":{"POSITION":20,"NORMAL":21,"TEXCOORD_0":22},"indices":23,"material":0}]},{"primitives":[{"attributes":{"POSITION":24,"NORMAL":25,"TEXCOORD_0":26},"indices":27,"material":0}]},{"primitives":[{"attributes":{"POSITION":28,"NORMAL":29,"TEXCOORD_0":30},"indices":31,"material":0}]},{"primitives":[{"attributes":{"POSITION":32,"NORMAL":33,"TEXCOORD_0":34},"indices":35,"material":0}]},{"primitives":[{"attributes":{"POSITION":36,"NORMAL":37,"TEXCOORD_0":38},"indices":39,"material":0}]},{"primitives":[{"attributes":{"POSITION":40,"NORMAL":41,"TEXCOORD_0":42},"indices":43,"material":0}]},{"primitives":[{"attributes":{"POSITION":44,"NORMAL":45,"TEXCOORD_0":46},"indices":47,"material":0}]},{"primitives":[{"attributes":{"POSITION":48,"NORMAL":49,"TEXCOORD_0":50},"indices":51,"material":0}]},{"primitives":[{"attributes":{"POSITION":52,"NORMAL":53,"TEXCOORD_0":54},"indices":55,"material":0}]},{"primitives":[{"attributes":{"POSITION":56,"NORMAL":57,"TEXCOORD_0":58},"indices":59,"material":0}]},{"primitives":[{"attributes":{"POSITION":60,"NORMAL":61,"TEXCOORD_0":62},"indices":63,"material":0}]}],"scene":0,"scenes":[{"name":"pant","nodes":[15]}]}