{"accessors" : [{"bufferView" : 0, "byteOffset" : 0, "componentType" : 5123, "count" : 393, "type" : "SCALAR", "max" : [331], "min" : [0]}, {"bufferView" : 1, "byteOffset" : 0, "componentType" : 5126, "count" : 332, "type" : "VEC3", "max" : [0.003495000069960952, 9.142465591430664, 58.90555953979492], "min" : [-9.547170639038086, 1.717270016670227, 55.30323028564453], "name" : "POSITION"}, {"bufferView" : 1, "byteOffset" : 12, "componentType" : 5126, "count" : 332, "type" : "VEC2", "max" : [29.74871826171875, -262.528564453125], "min" : [-76.48585510253906, -289.36761474609375], "name" : "TEXCOORD_0"}, {"bufferView" : 1, "byteOffset" : 20, "componentType" : 5126, "count" : 332, "type" : "VEC3", "max" : [-0.00013600056990981102, 0.9999943971633911, 0.32375335693359375], "min" : [-0.9782203435897827, -0.026708118617534637, -0.25555619597435], "name" : "NORMAL"}, {"bufferView" : 0, "byteOffset" : 788, "componentType" : 5123, "count" : 330, "type" : "SCALAR", "max" : [283], "min" : [0]}, {"bufferView" : 2, "byteOffset" : 0, "componentType" : 5126, "count" : 284, "type" : "VEC3", "max" : [-0.02995399944484234, 1.7344690561294556, 58.90555953979492], "min" : [-9.547170639038086, -5.350837230682373, 55.202816009521484], "name" : "POSITION"}, {"bufferView" : 2, "byteOffset" : 12, "componentType" : 5126, "count" : 284, "type" : "VEC2", "max" : [76.48774719238281, -264.6283874511719], "min" : [-30.070297241210938, -289.36767578125], "name" : "TEXCOORD_0"}, {"bufferView" : 2, "byteOffset" : 20, "componentType" : 5126, "count" : 284, "type" : "VEC3", "max" : [0.02170710451900959, 0.08815135061740875, 0.43326297402381897], "min" : [-0.9782203435897827, -0.9999992251396179, -0.060716256499290466], "name" : "NORMAL"}, {"bufferView" : 0, "byteOffset" : 1448, "componentType" : 5123, "count" : 381, "type" : "SCALAR", "max" : [321], "min" : [0]}, {"bufferView" : 3, "byteOffset" : 0, "componentType" : 5126, "count" : 322, "type" : "VEC3", "max" : [9.534469604492188, 9.142465591430664, 58.96220779418945], "min" : [-0.02106899954378605, 1.6755210161209106, 55.30323028564453], "name" : "POSITION"}, {"bufferView" : 3, "byteOffset" : 12, "componentType" : 5126, "count" : 322, "type" : "VEC2", "max" : [76.48583984375, -262.528564453125], "min" : [-29.74871826171875, -289.36761474609375], "name" : "TEXCOORD_0"}, {"bufferView" : 3, "byteOffset" : 20, "componentType" : 5126, "count" : 322, "type" : "VEC3", "max" : [0.9776948690414429, 0.9999943971633911, 0.3082892894744873], "min" : [-0.002092008711770177, -0.055053260177373886, -0.16778670251369476], "name" : "NORMAL"}, {"bufferView" : 0, "byteOffset" : 2212, "componentType" : 5123, "count" : 330, "type" : "SCALAR", "max" : [282], "min" : [0]}, {"bufferView" : 4, "byteOffset" : 0, "componentType" : 5126, "count" : 283, "type" : "VEC3", "max" : [9.534469604492188, 1.718973994255066, 58.96220779418945], "min" : [-0.05407699942588806, -5.344534873962402, 55.202816009521484], "name" : "POSITION"}, {"bufferView" : 4, "byteOffset" : 12, "componentType" : 5126, "count" : 283, "type" : "VEC2", "max" : [30.0703125, -264.6283874511719], "min" : [-76.48773193359375, -289.36767578125], "name" : "TEXCOORD_0"}, {"bufferView" : 4, "byteOffset" : 20, "componentType" : 5126, "count" : 283, "type" : "VEC3", "max" : [0.9776948690414429, 0.07984337210655212, 0.4099728465080261], "min" : [-0.01994909532368183, -0.9999958872795105, -0.060716256499290466], "name" : "NORMAL"}, {"bufferView" : 0, "byteOffset" : 2872, "componentType" : 5123, "count" : 219, "type" : "SCALAR", "max" : [181], "min" : [0]}, {"bufferView" : 5, "byteOffset" : 0, "componentType" : 5126, "count" : 182, "type" : "VEC3", "max" : [-2.849910020828247, 8.957220077514648, 57.72910690307617], "min" : [-3.9290990829467773, 8.295306205749512, 54.82735061645508], "name" : "POSITION"}, {"bufferView" : 5, "byteOffset" : 12, "componentType" : 5126, "count" : 182, "type" : "VEC2", "max" : [4.519866943359375, 7.369826793670654], "min" : [-4.519844055175781, -29.891265869140625], "name" : "TEXCOORD_0"}, {"bufferView" : 5, "byteOffset" : 20, "componentType" : 5126, "count" : 182, "type" : "VEC3", "max" : [0.40748390555381775, 0.96418696641922, 0.9999723434448242], "min" : [-0.4113658666610718, -0.9790774583816528, -0.4409569799900055], "name" : "NORMAL"}, {"bufferView" : 0, "byteOffset" : 3312, "componentType" : 5123, "count" : 216, "type" : "SCALAR", "max" : [178], "min" : [0]}, {"bufferView" : 6, "byteOffset" : 0, "componentType" : 5126, "count" : 179, "type" : "VEC3", "max" : [-7.142535209655762, 6.611052989959717, 58.286842346191406], "min" : [-8.690980911254883, 5.5949320793151855, 55.491432189941406], "name" : "POSITION"}, {"bufferView" : 6, "byteOffset" : 12, "componentType" : 5126, "count" : 179, "type" : "VEC2", "max" : [4.51985502243042, 7.3698577880859375], "min" : [-4.519847869873047, -29.8912353515625], "name" : "TEXCOORD_0"}, {"bufferView" : 6, "byteOffset" : 20, "componentType" : 5126, "count" : 179, "type" : "VEC3", "max" : [0.845459520816803, 0.7345570921897888, 0.9770386815071106], "min" : [-0.8283177018165588, -0.6997578144073486, -0.8869634866714478], "name" : "NORMAL"}, {"bufferView" : 0, "byteOffset" : 3744, "componentType" : 5123, "count" : 225, "type" : "SCALAR", "max" : [190], "min" : [0]}, {"bufferView" : 7, "byteOffset" : 0, "componentType" : 5126, "count" : 191, "type" : "VEC3", "max" : [3.9358129501342773, 8.940775871276855, 57.68613815307617], "min" : [2.8547658920288086, 8.263933181762695, 54.88772201538086], "name" : "POSITION"}, {"bufferView" : 7, "byteOffset" : 12, "componentType" : 5126, "count" : 191, "type" : "VEC2", "max" : [4.519866943359375, 7.369843006134033], "min" : [-4.519866943359375, -29.8912353515625], "name" : "TEXCOORD_0"}, {"bufferView" : 7, "byteOffset" : 20, "componentType" : 5126, "count" : 191, "type" : "VEC3", "max" : [0.4165447950363159, 0.969184935092926, 0.9939626455307007], "min" : [-0.3852846920490265, -0.9831144213676453, -0.884665846824646], "name" : "NORMAL"}, {"bufferView" : 0, "byteOffset" : 4196, "componentType" : 5123, "count" : 201, "type" : "SCALAR", "max" : [171], "min" : [0]}, {"bufferView" : 8, "byteOffset" : 0, "componentType" : 5126, "count" : 172, "type" : "VEC3", "max" : [8.588391304016113, 6.527637958526611, 58.3119010925293], "min" : [7.119565963745117, 5.477036952972412, 55.51808547973633], "name" : "POSITION"}, {"bufferView" : 8, "byteOffset" : 12, "componentType" : 5126, "count" : 172, "type" : "VEC2", "max" : [4.519866943359375, 7.369843006134033], "min" : [-4.519866943359375, -29.891265869140625], "name" : "TEXCOORD_0"}, {"bufferView" : 8, "byteOffset" : 20, "componentType" : 5126, "count" : 172, "type" : "VEC3", "max" : [0.896641731262207, 0.7603691220283508, 0.30709952116012573], "min" : [-0.7691916823387146, -0.6969369053840637, -0.9445969462394714], "name" : "NORMAL"}, {"bufferView" : 0, "byteOffset" : 4600, "componentType" : 5123, "count" : 5352, "type" : "SCALAR", "max" : [4507], "min" : [0]}, {"bufferView" : 9, "byteOffset" : 0, "componentType" : 5126, "count" : 4508, "type" : "VEC3", "max" : [-0.012501999735832214, 3.237265110015869, 56.65071487426758], "min" : [-11.859651565551758, -5.341383934020996, 4.8539719581604], "name" : "POSITION"}, {"bufferView" : 9, "byteOffset" : 12, "componentType" : 5126, "count" : 4508, "type" : "VEC2", "max" : [77.15731048583984, 254.56878662109375], "min" : [-95.89907836914062, -267.1300354003906], "name" : "TEXCOORD_0"}, {"bufferView" : 9, "byteOffset" : 20, "componentType" : 5126, "count" : 4508, "type" : "VEC3", "max" : [0.9985978007316589, 0.7104631662368774, 0.41611772775650024], "min" : [-0.9997989535331726, -0.9999992251396179, -0.9977104663848877], "name" : "NORMAL"}, {"bufferView" : 0, "byteOffset" : 15304, "componentType" : 5123, "count" : 336, "type" : "SCALAR", "max" : [294], "min" : [0]}, {"bufferView" : 10, "byteOffset" : 0, "componentType" : 5126, "count" : 295, "type" : "VEC3", "max" : [-5.18555212020874, 1.3303049802780151, 5.510465145111084], "min" : [-11.523772239685059, -3.2449679374694824, 1.8696329593658447], "name" : "POSITION"}, {"bufferView" : 10, "byteOffset" : 12, "componentType" : 5126, "count" : 295, "type" : "VEC2", "max" : [41.09221649169922, 289.7275695800781], "min" : [-62.19102478027344, 253.96664428710938], "name" : "TEXCOORD_0"}, {"bufferView" : 10, "byteOffset" : 20, "componentType" : 5126, "count" : 295, "type" : "VEC3", "max" : [0.9922462701797485, 0.2959632873535156, 0.05201925337314606], "min" : [-0.9986096024513245, -0.9997532367706299, -0.3505614995956421], "name" : "NORMAL"}, {"bufferView" : 0, "byteOffset" : 15976, "componentType" : 5123, "count" : 5487, "type" : "SCALAR", "max" : [4629], "min" : [0]}, {"bufferView" : 11, "byteOffset" : 0, "componentType" : 5126, "count" : 4630, "type" : "VEC3", "max" : [-0.016251999884843826, 9.159475326538086, 56.5818977355957], "min" : [-11.861066818237305, -0.744717001914978, 4.8906049728393555], "name" : "POSITION"}, {"bufferView" : 11, "byteOffset" : 12, "componentType" : 5126, "count" : 4630, "type" : "VEC2", "max" : [92.45777130126953, 248.9146728515625], "min" : [-77.15769958496094, -266.1641845703125], "name" : "TEXCOORD_0"}, {"bufferView" : 11, "byteOffset" : 20, "componentType" : 5126, "count" : 4630, "type" : "VEC3", "max" : [0.9966414570808411, 1.0000025033950806, 0.9714162349700928], "min" : [-0.9997989535331726, -0.5261954069137573, -0.9992923736572266], "name" : "NORMAL"}, {"bufferView" : 0, "byteOffset" : 26952, "componentType" : 5123, "count" : 339, "type" : "SCALAR", "max" : [286], "min" : [0]}, {"bufferView" : 12, "byteOffset" : 0, "componentType" : 5126, "count" : 287, "type" : "VEC3", "max" : [-5.18555212020874, 4.41829776763916, 6.21227502822876], "min" : [-11.587291717529297, -0.6624979972839355, 1.9940810203552246], "name" : "POSITION"}, {"bufferView" : 12, "byteOffset" : 12, "componentType" : 5126, "count" : 287, "type" : "VEC2", "max" : [60.998382568359375, 285.0174560546875], "min" : [-42.05641174316406, 253.83518981933594], "name" : "TEXCOORD_0"}, {"bufferView" : 12, "byteOffset" : 20, "componentType" : 5126, "count" : 287, "type" : "VEC3", "max" : [0.9922462701797485, 0.977513313293457, 0.9714162349700928], "min" : [-0.9986096024513245, -0.3491614758968353, -0.5524436235427856], "name" : "NORMAL"}, {"bufferView" : 0, "byteOffset" : 27632, "componentType" : 5123, "count" : 5490, "type" : "SCALAR", "max" : [4613], "min" : [0]}, {"bufferView" : 13, "byteOffset" : 0, "componentType" : 5126, "count" : 4614, "type" : "VEC3", "max" : [11.86557674407959, 9.159475326538086, 56.64140701293945], "min" : [-0.046581998467445374, -0.6703680157661438, 4.929736137390137], "name" : "POSITION"}, {"bufferView" : 13, "byteOffset" : 12, "componentType" : 5126, "count" : 4614, "type" : "VEC2", "max" : [77.15771484375, 248.9146728515625], "min" : [-92.457763671875, -266.1641845703125], "name" : "TEXCOORD_0"}, {"bufferView" : 13, "byteOffset" : 20, "componentType" : 5126, "count" : 4614, "type" : "VEC3", "max" : [0.9998907446861267, 1.0000025033950806, 0.69938725233078], "min" : [-0.9975090026855469, -0.5117700695991516, -0.9992923736572266], "name" : "NORMAL"}, {"bufferView" : 0, "byteOffset" : 38612, "componentType" : 5123, "count" : 339, "type" : "SCALAR", "max" : [279], "min" : [0]}, {"bufferView" : 14, "byteOffset" : 0, "componentType" : 5126, "count" : 280, "type" : "VEC3", "max" : [11.283614158630371, 4.547749042510986, 5.935667991638184], "min" : [5.228966236114502, -0.519569993019104, 2.066004991531372], "name" : "POSITION"}, {"bufferView" : 14, "byteOffset" : 12, "componentType" : 5126, "count" : 280, "type" : "VEC2", "max" : [42.056396484375, 285.0174560546875], "min" : [-60.998382568359375, 253.83518981933594], "name" : "TEXCOORD_0"}, {"bufferView" : 14, "byteOffset" : 20, "componentType" : 5126, "count" : 280, "type" : "VEC3", "max" : [0.9996333122253418, 0.9669455885887146, 0.7274120450019836], "min" : [-0.9798176288604736, -0.3021262288093567, -0.3943678140640259], "name" : "NORMAL"}, {"bufferView" : 0, "byteOffset" : 39292, "componentType" : 5123, "count" : 336, "type" : "SCALAR", "max" : [278], "min" : [0]}, {"bufferView" : 15, "byteOffset" : 0, "componentType" : 5126, "count" : 279, "type" : "VEC3", "max" : [11.283614158630371, 1.5665689706802368, 5.5642499923706055], "min" : [5.172643184661865, -3.2034080028533936, 1.9181519746780396], "name" : "POSITION"}, {"bufferView" : 15, "byteOffset" : 12, "componentType" : 5126, "count" : 279, "type" : "VEC2", "max" : [62.1910400390625, 289.7275695800781], "min" : [-41.09222412109375, 253.96664428710938], "name" : "TEXCOORD_0"}, {"bufferView" : 15, "byteOffset" : 20, "componentType" : 5126, "count" : 279, "type" : "VEC3", "max" : [0.9977026581764221, 0.3915046751499176, 0.1023494079709053], "min" : [-0.9862500429153442, -0.9996637105941772, -0.3130973279476166], "name" : "NORMAL"}, {"bufferView" : 0, "byteOffset" : 39964, "componentType" : 5123, "count" : 5352, "type" : "SCALAR", "max" : [4497], "min" : [0]}, {"bufferView" : 16, "byteOffset" : 0, "componentType" : 5126, "count" : 4498, "type" : "VEC3", "max" : [11.864246368408203, 3.171480894088745, 56.67204666137695], "min" : [-0.05407699942588806, -5.341039180755615, 4.88845682144165], "name" : "POSITION"}, {"bufferView" : 16, "byteOffset" : 12, "componentType" : 5126, "count" : 4498, "type" : "VEC2", "max" : [95.89910888671875, 254.56878662109375], "min" : [-77.15731811523438, -267.1300354003906], "name" : "TEXCOORD_0"}, {"bufferView" : 16, "byteOffset" : 20, "componentType" : 5126, "count" : 4498, "type" : "VEC3", "max" : [0.9998907446861267, 0.7977871894836426, 0.4885539710521698], "min" : [-0.9996721744537354, -0.9999958872795105, -0.9977104663848877], "name" : "NORMAL"}], "asset" : {"generator" : "Aspose.3D 23.9.0", "version" : "2.0"}, "buffers" : [{"uri" : "data:application/octet-stream;base64,", "byteLength" : 861168}], "bufferViews" : [{"buffer" : 0, "byteOffset" : 0, "byteLength" : 50668, "target" : 34963}, {"buffer" : 0, "byteOffset" : 50672, "byteLength" : 12576, "byteStride" : 32, "target" : 34962}, {"buffer" : 0, "byteOffset" : 63252, "byteLength" : 10560, "byteStride" : 32, "target" : 34962}, {"buffer" : 0, "byteOffset" : 73816, "byteLength" : 12192, "byteStride" : 32, "target" : 34962}, {"buffer" : 0, "byteOffset" : 86012, "byteLength" : 10560, "byteStride" : 32, "target" : 34962}, {"buffer" : 0, "byteOffset" : 96576, "byteLength" : 7008, "byteStride" : 32, "target" : 34962}, {"buffer" : 0, "byteOffset" : 103588, "byteLength" : 6912, "byteStride" : 32, "target" : 34962}, {"buffer" : 0, "byteOffset" : 110504, "byteLength" : 7200, "byteStride" : 32, "target" : 34962}, {"buffer" : 0, "byteOffset" : 117708, "byteLength" : 6432, "byteStride" : 32, "target" : 34962}, {"buffer" : 0, "byteOffset" : 124144, "byteLength" : 171264, "byteStride" : 32, "target" : 34962}, {"buffer" : 0, "byteOffset" : 295412, "byteLength" : 10752, "byteStride" : 32, "target" : 34962}, {"buffer" : 0, "byteOffset" : 306168, "byteLength" : 175584, "byteStride" : 32, "target" : 34962}, {"buffer" : 0, "byteOffset" : 481756, "byteLength" : 10848, "byteStride" : 32, "target" : 34962}, {"buffer" : 0, "byteOffset" : 492608, "byteLength" : 175680, "byteStride" : 32, "target" : 34962}, {"buffer" : 0, "byteOffset" : 668292, "byteLength" : 10848, "byteStride" : 32, "target" : 34962}, {"buffer" : 0, "byteOffset" : 679144, "byteLength" : 10752, "byteStride" : 32, "target" : 34962}, {"buffer" : 0, "byteOffset" : 689900, "byteLength" : 171264, "byteStride" : 32, "target" : 34962}], "meshes" : [{"primitives" : [{"attributes" : {"POSITION" : 1, "TEXCOORD_0" : 2, "NORMAL" : 3}, "indices" : 0, "mode" : 4}, {"attributes" : {"POSITION" : 5, "TEXCOORD_0" : 6, "NORMAL" : 7}, "indices" : 4, "mode" : 4}, {"attributes" : {"POSITION" : 9, "TEXCOORD_0" : 10, "NORMAL" : 11}, "indices" : 8, "mode" : 4}, {"attributes" : {"POSITION" : 13, "TEXCOORD_0" : 14, "NORMAL" : 15}, "indices" : 12, "mode" : 4}, {"attributes" : {"POSITION" : 17, "TEXCOORD_0" : 18, "NORMAL" : 19}, "indices" : 16, "mode" : 4}, {"attributes" : {"POSITION" : 21, "TEXCOORD_0" : 22, "NORMAL" : 23}, "indices" : 20, "mode" : 4}, {"attributes" : {"POSITION" : 25, "TEXCOORD_0" : 26, "NORMAL" : 27}, "indices" : 24, "mode" : 4}, {"attributes" : {"POSITION" : 29, "TEXCOORD_0" : 30, "NORMAL" : 31}, "indices" : 28, "mode" : 4}, {"attributes" : {"POSITION" : 33, "TEXCOORD_0" : 34, "NORMAL" : 35}, "indices" : 32, "mode" : 4}, {"attributes" : {"POSITION" : 37, "TEXCOORD_0" : 38, "NORMAL" : 39}, "indices" : 36, "mode" : 4}, {"attributes" : {"POSITION" : 41, "TEXCOORD_0" : 42, "NORMAL" : 43}, "indices" : 40, "mode" : 4}, {"attributes" : {"POSITION" : 45, "TEXCOORD_0" : 46, "NORMAL" : 47}, "indices" : 44, "mode" : 4}, {"attributes" : {"POSITION" : 49, "TEXCOORD_0" : 50, "NORMAL" : 51}, "indices" : 48, "mode" : 4}, {"attributes" : {"POSITION" : 53, "TEXCOORD_0" : 54, "NORMAL" : 55}, "indices" : 52, "mode" : 4}, {"attributes" : {"POSITION" : 57, "TEXCOORD_0" : 58, "NORMAL" : 59}, "indices" : 56, "mode" : 4}, {"attributes" : {"POSITION" : 61, "TEXCOORD_0" : 62, "NORMAL" : 63}, "indices" : 60, "mode" : 4}], "name" : ""}], "nodes" : [{"mesh" : 0, "name" : ""}], "scene" : 0, "scenes" : [{"nodes" : [0]}]}