{"asset":{"version":"2.0","generator":"Unity 2021.3.31f1 glTFast 5.0.5"},"nodes":[{"name":"FlatWomanShort","mesh":0,"translation":[1.99579716,0.119000077,0.488054574],"rotation":[0,-0.00145085156,0,0.999999]}],"buffers":[{"uri":"FlatWomanShort.bin","byteLength":209616}],"bufferViews":[{"buffer":0,"byteLength":39456},{"buffer":0,"byteLength":141800,"byteOffset":39456,"byteStride":40},{"buffer":0,"byteLength":28360,"byteOffset":181256,"byteStride":8}],"accessors":[{"bufferView":1,"componentType":5126,"count":3545,"type":"VEC3","max":[0.201811314,0.320747852,0.110960692],"min":[-0.201719016,-0.00309360027,-0.152480751]},{"bufferView":1,"componentType":5126,"count":3545,"type":"VEC3","byteOffset":12},{"bufferView":1,"componentType":5126,"count":3545,"type":"VEC4","byteOffset":24},{"bufferView":2,"componentType":5126,"count":3545,"type":"VEC2"},{"bufferView":0,"componentType":5125,"count":9864,"type":"SCALAR"}],"materials":[{"name":"Material.013","pbrMetallicRoughness":{"baseColorFactor":[0,0,0,1],"metallicFactor":0,"roughnessFactor":0.5},"doubleSided":true}],"meshes":[{"name":"FlatWomanShort","primitives":[{"attributes":{"POSITION":0,"NORMAL":1,"TANGENT":2,"TEXCOORD_0":3},"indices":4,"material":0}]}],"scene":0,"scenes":[{"name":"FlatWomanShort","nodes":[0]}]}