{"asset":{"version":"2.0","generator":"Unity 2022.3.12f1 glTFast 6.0.1"},"nodes":[{"name":"FarmerHat","mesh":0}],"buffers":[{"uri":"FarmerHat.bin","byteLength":11712}],"bufferViews":[{"buffer":0,"byteLength":3552},{"buffer":0,"byteLength":6120,"byteOffset":3552,"byteStride":24},{"buffer":0,"byteLength":2040,"byteOffset":9672,"byteStride":8}],"accessors":[{"bufferView":1,"componentType":5126,"count":255,"type":"VEC3","max":[0.171189025,0.1125746,0.184723258],"min":[-0.182771489,-0.072416,-0.194320977]},{"bufferView":1,"componentType":5126,"count":255,"type":"VEC3","byteOffset":12},{"bufferView":2,"componentType":5126,"count":255,"type":"VEC2"},{"bufferView":0,"componentType":5125,"count":888,"type":"SCALAR"}],"images":[{"name":"FeatherHat_Normal_OpenGL.png","uri":"FeatherHat_Normal_OpenGL.png","mimeType":"image/png"},{"name":"FeatherHat_Base_color.jpg","uri":"FeatherHat_Base_color.jpg","mimeType":"image/jpeg"},{"name":"FeatherHat_Mixed_AO.jpg","uri":"FeatherHat_Mixed_AO.jpg","mimeType":"image/jpeg"}],"materials":[{"name":"Dirty","pbrMetallicRoughness":{"metallicFactor":0,"roughnessFactor":0.6,"baseColorTexture":{"index":1}},"normalTexture":{"index":0},"occlusionTexture":{"index":2}}],"meshes":[{"name":"FarmerHat_LOD1","primitives":[{"attributes":{"POSITION":0,"NORMAL":1,"TEXCOORD_0":2},"indices":3,"material":0}]}],"scene":0,"scenes":[{"name":"FarmerHat","nodes":[0]}],"textures":[{"source":0},{"source":1},{"source":2}]}