{"asset":{"version":"2.0","generator":"Unity 2021.3.31f1 glTFast 5.0.5"},"nodes":[{"name":"HangingJeanPant","mesh":0,"translation":[8.486146,0.335383028,-0.151867062],"rotation":[0,0.003526628,0,0.999993861]}],"buffers":[{"uri":"HangingJeanPant.bin","byteLength":485352}],"bufferViews":[{"buffer":0,"byteLength":86568},{"buffer":0,"byteLength":332320,"byteOffset":86568,"byteStride":40},{"buffer":0,"byteLength":66464,"byteOffset":418888,"byteStride":8}],"accessors":[{"bufferView":1,"componentType":5126,"count":8308,"type":"VEC3","max":[0.0318385921,0.8363249,0.221732557],"min":[-0.0351647325,-0.00576382875,-0.222299755]},{"bufferView":1,"componentType":5126,"count":8308,"type":"VEC3","byteOffset":12},{"bufferView":1,"componentType":5126,"count":8308,"type":"VEC4","byteOffset":24},{"bufferView":2,"componentType":5126,"count":8308,"type":"VEC2"},{"bufferView":0,"componentType":5125,"count":9234,"type":"SCALAR"},{"bufferView":0,"componentType":5125,"count":12408,"type":"SCALAR","byteOffset":36936}],"materials":[{"name":"Material.002 1","pbrMetallicRoughness":{"baseColorFactor":[0,0.2550157,0.7264151,1],"metallicFactor":0,"roughnessFactor":0.5},"doubleSided":true},{"name":"Material.013","pbrMetallicRoughness":{"metallicFactor":0},"doubleSided":true}],"meshes":[{"name":"HangingJeanPant","primitives":[{"attributes":{"POSITION":0,"NORMAL":1,"TANGENT":2,"TEXCOORD_0":3},"indices":4,"material":0},{"attributes":{"POSITION":0,"NORMAL":1,"TANGENT":2,"TEXCOORD_0":3},"indices":5,"material":1}]}],"scene":0,"scenes":[{"name":"HangingJeanPant","nodes":[0]}]}