{
	"asset":{
		"generator":"Khronos glTF Blender I/O v4.0.44",
		"version":"2.0"
	},
	"scene":0,
	"scenes":[
		{
			"name":"Scene",
			"nodes":[
				0
			]
		}
	],
	"nodes":[
		{
			"mesh":0,
			"name":"glove",
			"rotation":[
				-0.10513558983802795,
				-0.08535919338464737,
				-0.10474258661270142,
				0.9852356910705566
			],
			"scale":[
				0.01197863556444645,
				0.01197863556444645,
				0.01197863556444645
			],
			"translation":[
				0.6771426200866699,
				-0.11936237663030624,
				1.3079209327697754
			]
		}
	],
	"materials":[
		{
			"name":"glTF-Default-Material",
			"pbrMetallicRoughness":{
				"metallicFactor":0
			}
		}
	],
	"meshes":[
		{
			"name":"Mesh_0",
			"primitives":[
				{
					"attributes":{
						"POSITION":0,
						"NORMAL":1,
						"TEXCOORD_0":2
					},
					"indices":3,
					"material":0
				}
			]
		}
	],
	"accessors":[
		{
			"bufferView":0,
			"componentType":5126,
			"count":84748,
			"max":[
				4.960793495178223,
				8.003658294677734,
				6.345778465270996
			],
			"min":[
				-8.939608573913574,
				-5.5835418701171875,
				-5.413620948791504
			],
			"type":"VEC3"
		},
		{
			"bufferView":1,
			"componentType":5126,
			"count":84748,
			"type":"VEC3"
		},
		{
			"bufferView":2,
			"componentType":5126,
			"count":84748,
			"type":"VEC2"
		},
		{
			"bufferView":3,
			"componentType":5125,
			"count":87120,
			"type":"SCALAR"
		}
	],
	"bufferViews":[
		{
			"buffer":0,
			"byteLength":1016976,
			"byteOffset":0,
			"target":34962
		},
		{
			"buffer":0,
			"byteLength":1016976,
			"byteOffset":1016976,
			"target":34962
		},
		{
			"buffer":0,
			"byteLength":677984,
			"byteOffset":2033952,
			"target":34962
		},
		{
			"buffer":0,
			"byteLength":348480,
			"byteOffset":2711936,
			"target":34963
		}
	],
	"buffers":[
		{
			"byteLength":3060416,
			"uri":"glove1.bin"
		}
	]
}
