{"accessors" : [{"bufferView" : 0, "byteOffset" : 0, "componentType" : 5125, "count" : 87120, "type" : "SCALAR", "max" : [73672], "min" : [0]}, {"bufferView" : 1, "byteOffset" : 0, "componentType" : 5126, "count" : 73673, "type" : "VEC3", "max" : [61.4900016784668, -1.9609999656677246, 115.53359985351562], "min" : [47.589599609375, -15.548199653625488, 103.77420043945312], "name" : "POSITION"}, {"bufferView" : 1, "byteOffset" : 12, "componentType" : 5126, "count" : 73673, "type" : "VEC2", "max" : [0.9156000018119812, -0.02250000089406967], "min" : [0.004800000227987766, -0.9817000031471252], "name" : "TEXCOORD_0"}, {"bufferView" : 1, "byteOffset" : 20, "componentType" : 5126, "count" : 73673, "type" : "VEC3", "max" : [1.0000044107437134, 0.9982220530509949, 0.9996946454048157], "min" : [-0.9986184239387512, -0.9997930526733398, -0.9999570846557617], "name" : "NORMAL"}], "asset" : {"generator" : "Aspose.3D 23.9.0", "version" : "2.0"}, "buffers" : [{"uri" : "data:application/octet-stream;base64,", "byteLength" : 3136328}], "bufferViews" : [{"buffer" : 0, "byteOffset" : 0, "byteLength" : 348480, "target" : 34963}, {"buffer" : 0, "byteOffset" : 348484, "byteLength" : 2787840, "byteStride" : 32, "target" : 34962}], "meshes" : [{"primitives" : [{"attributes" : {"POSITION" : 1, "TEXCOORD_0" : 2, "NORMAL" : 3}, "indices" : 0, "mode" : 4}], "name" : ""}], "nodes" : [{"mesh" : 0, "name" : "10139_GardenGloves_v01"}], "scene" : 0, "scenes" : [{"nodes" : [0]}]}