{"asset":{"version":"2.0","generator":"Unity 2022.3.12f1 glTFast 6.0.1"},"nodes":[{"name":"glove","mesh":0,"scale":[0.0119786365,0.0119786365,0.0119786365]}],"buffers":[{"uri":"glove.bin","byteLength":2706016}],"bufferViews":[{"buffer":0,"byteLength":348480},{"buffer":0,"byteLength":1768152,"byteOffset":348480,"byteStride":24},{"buffer":0,"byteLength":589384,"byteOffset":2116632,"byteStride":8}],"accessors":[{"bufferView":1,"componentType":5126,"count":73673,"type":"VEC3","max":[61.4900055,-1.96099949,115.5336],"min":[47.5896,-15.5482,103.7742]},{"bufferView":1,"componentType":5126,"count":73673,"type":"VEC3","byteOffset":12},{"bufferView":2,"componentType":5126,"count":73673,"type":"VEC2"},{"bufferView":0,"componentType":5125,"count":87120,"type":"SCALAR"}],"materials":[{"name":"glTF-Default-Material","pbrMetallicRoughness":{"metallicFactor":0}}],"meshes":[{"primitives":[{"attributes":{"POSITION":0,"NORMAL":1,"TEXCOORD_0":2},"indices":3,"material":0}]}],"scene":0,"scenes":[{"name":"glove","nodes":[0]}]}