{"asset":{"version":"2.0","generator":"Unity 2021.3.31f1 glTFast 5.0.5"},"nodes":[{"name":"FoldedSweater","mesh":0,"scale":[0.01,0.0100000007,0.0100000007]}],"buffers":[{"uri":"FoldedSweater.bin","byteLength":182880}],"bufferViews":[{"buffer":0,"byteLength":29832},{"buffer":0,"byteLength":109320,"byteOffset":29832,"byteStride":40},{"buffer":0,"byteLength":43728,"byteOffset":139152,"byteStride":16}],"accessors":[{"bufferView":1,"componentType":5126,"count":2733,"type":"VEC3","max":[12.4204664,6.269182,16.9729767],"min":[-12.4722967,-0.6541562,-16.0335]},{"bufferView":1,"componentType":5126,"count":2733,"type":"VEC3","byteOffset":12},{"bufferView":1,"componentType":5126,"count":2733,"type":"VEC4","byteOffset":24},{"bufferView":2,"componentType":5126,"count":2733,"type":"VEC2"},{"bufferView":2,"componentType":5126,"count":2733,"type":"VEC2","byteOffset":8},{"bufferView":0,"componentType":5125,"count":7458,"type":"SCALAR"}],"images":[{"name":"fabric_101_normal-2K.png","uri":"fabric_101_normal-2K.png","mimeType":"image/png"},{"name":"fabric-512.png","uri":"fabric-512.png","mimeType":"image/png"}],"materials":[{"name":"Fabric","pbrMetallicRoughness":{"metallicFactor":0,"roughnessFactor":0.5,"baseColorTexture":{"index":1}},"normalTexture":{"index":0},"doubleSided":true}],"meshes":[{"name":"FoldedShirt","primitives":[{"attributes":{"POSITION":0,"NORMAL":1,"TANGENT":2,"TEXCOORD_0":3,"TEXCOORD_1":4},"indices":5,"material":0}]}],"samplers":[{"minFilter":9987}],"scene":0,"scenes":[{"name":"FoldedSweater","nodes":[0]}],"textures":[{"source":0,"sampler":0},{"source":1}]}