{"asset":{"version":"2.0","generator":"Unity 2021.3.31f1 glTFast 5.0.5"},"nodes":[{"name":"HangingGreenBlouse","mesh":0,"translation":[-5.740105,0.0236956179,-1.43138],"rotation":[3.58789111E-06,0.0056034103,-0.0006402969,0.9999841]}],"buffers":[{"uri":"HangingGreenBlouse.bin","byteLength":315168}],"bufferViews":[{"buffer":0,"byteLength":83184},{"buffer":0,"byteLength":231984,"byteOffset":83184,"byteStride":48}],"accessors":[{"bufferView":1,"componentType":5126,"count":4833,"type":"VEC3","max":[0.2920525,0.7339254,0.05070491],"min":[-0.266233325,3.15308571E-05,-0.0552745]},{"bufferView":1,"componentType":5126,"count":4833,"type":"VEC3","byteOffset":12},{"bufferView":1,"componentType":5126,"count":4833,"type":"VEC4","byteOffset":24},{"bufferView":1,"componentType":5126,"count":4833,"type":"VEC2","byteOffset":40},{"bufferView":0,"componentType":5125,"count":9156,"type":"SCALAR"},{"bufferView":0,"componentType":5125,"count":11640,"type":"SCALAR","byteOffset":36624}],"images":[{"name":"fabric_138_normal-2K 1.png","uri":"fabric_138_normal-2K 1.png","mimeType":"image/png"},{"name":"glb.png","uri":"glb.png","mimeType":"image/png"}],"materials":[{"name":"Material.030","pbrMetallicRoughness":{"metallicFactor":0,"baseColorTexture":{"index":1}},"normalTexture":{"index":0},"doubleSided":true},{"name":"Material.013","pbrMetallicRoughness":{"baseColorFactor":[0,0,0,1],"metallicFactor":0,"roughnessFactor":0.5},"doubleSided":true}],"meshes":[{"name":"HangingGreenBlouse","primitives":[{"attributes":{"POSITION":0,"NORMAL":1,"TANGENT":2,"TEXCOORD_0":3},"indices":4,"material":0},{"attributes":{"POSITION":0,"NORMAL":1,"TANGENT":2,"TEXCOORD_0":3},"indices":5,"material":1}]}],"samplers":[{"minFilter":9987}],"scene":0,"scenes":[{"name":"HangingGreenBlouse","nodes":[0]}],"textures":[{"source":0},{"source":1,"sampler":0}]}