{
	"asset":{
		"version":"2.0",
		"generator":"Created using the official Cinema 4D glTF Exporter 1.000x284978"
	},
	"scenes":[{
		"nodes":[0,
		1,
		2]
	}],
	"nodes":[{
		"name":"FarmerHat_LOD0",
		"mesh":0
	},
	{
		"name":"FarmerHat_LOD1",
		"mesh":1
	},
	{
		"name":"FarmerHat_LOD2",
		"mesh":2
	}],
	"materials":[{
		"pbrMetallicRoughness":{
			"baseColorFactor":[0.800000011920929,
			0.800000011920929,
			0.800000011920929,
			1.0],
			"metallicFactor":0.0,
			"roughnessFactor":0.5356143810225276
		},
		"emissiveFactor":[0.0,
		0.0,
		0.0],
		"alphaMode":"OPAQUE",
		"doubleSided":false,
		"name":"FeatherHat"
	}],
	"meshes":[{
		"name":"FarmerHat_LOD0",
		"primitives":[{
			"attributes":{
				"POSITION":1,
				"NORMAL":2,
				"TEXCOORD_0":3
			},
			"indices":0,
			"material":0
		}]
	},
	{
		"name":"FarmerHat_LOD1",
		"primitives":[{
			"attributes":{
				"POSITION":5,
				"NORMAL":6,
				"TEXCOORD_0":7
			},
			"indices":4,
			"material":0
		}]
	},
	{
		"name":"FarmerHat_LOD2",
		"primitives":[{
			"attributes":{
				"POSITION":9,
				"NORMAL":10,
				"TEXCOORD_0":11
			},
			"indices":8,
			"material":0
		}]
	}],
	"accessors":[{
		"bufferView":0,
		"type":"SCALAR",
		"componentType":5123,
		"count":1320,
		"byteOffset":0,
		"min":[0],
		"max":[312]
	},
	{
		"bufferView":1,
		"type":"VEC3",
		"componentType":5126,
		"count":313,
		"byteOffset":0,
		"min":[-0.18253108859062196,
		-0.07241600006818772,
		-0.19440260529518128],
		"max":[0.17122893035411836,
		0.1126837283372879,
		0.18473629653453828]
	},
	{
		"bufferView":1,
		"type":"VEC3",
		"componentType":5126,
		"count":313,
		"byteOffset":12,
		"min":[-0.9967966675758362,
		-0.9998721480369568,
		-0.9914273023605347],
		"max":[0.9806077480316162,
		0.9995304346084595,
		0.9900039434432983]
	},
	{
		"bufferView":1,
		"type":"VEC2",
		"componentType":5126,
		"count":313,
		"byteOffset":24,
		"min":[0.004235969390720129,
		-0.9957640767097473],
		"max":[0.7532335519790649,
		-0.004235982894897461]
	},
	{
		"bufferView":2,
		"type":"SCALAR",
		"componentType":5123,
		"count":888,
		"byteOffset":0,
		"min":[0],
		"max":[254]
	},
	{
		"bufferView":3,
		"type":"VEC3",
		"componentType":5126,
		"count":255,
		"byteOffset":0,
		"min":[-0.1827714741230011,
		-0.07241600006818772,
		-0.19432097673416139],
		"max":[0.17118902504444123,
		0.11257459968328476,
		0.18472324311733247]
	},
	{
		"bufferView":3,
		"type":"VEC3",
		"componentType":5126,
		"count":255,
		"byteOffset":12,
		"min":[-0.9998925924301148,
		-0.999980092048645,
		-0.9289425611495972],
		"max":[0.982011616230011,
		0.9996764659881592,
		0.9848065972328186]
	},
	{
		"bufferView":3,
		"type":"VEC2",
		"componentType":5126,
		"count":255,
		"byteOffset":24,
		"min":[0.011768180876970292,
		-0.9957640767097473],
		"max":[0.7532335519790649,
		-0.004235982894897461]
	},
	{
		"bufferView":4,
		"type":"SCALAR",
		"componentType":5123,
		"count":282,
		"byteOffset":0,
		"min":[0],
		"max":[99]
	},
	{
		"bufferView":5,
		"type":"VEC3",
		"componentType":5126,
		"count":100,
		"byteOffset":0,
		"min":[-0.17766037583351136,
		-0.07299627363681793,
		-0.19417284429073335],
		"max":[0.17028531432151795,
		0.11351710557937622,
		0.18559007346630097]
	},
	{
		"bufferView":5,
		"type":"VEC3",
		"componentType":5126,
		"count":100,
		"byteOffset":12,
		"min":[-0.9926311373710632,
		-0.999271035194397,
		-0.9435083866119385],
		"max":[0.9714683294296265,
		0.9902455806732178,
		0.9897304773330689]
	},
	{
		"bufferView":5,
		"type":"VEC2",
		"componentType":5126,
		"count":100,
		"byteOffset":24,
		"min":[0.015590254217386246,
		-0.9934449195861816],
		"max":[0.7489463686943054,
		-0.004643678665161133]
	}],
	"bufferViews":[{
		"buffer":0,
		"byteOffset":0,
		"target":34963,
		"byteLength":2640
	},
	{
		"buffer":0,
		"byteOffset":2640,
		"target":34962,
		"byteLength":10016,
		"byteStride":32
	},
	{
		"buffer":1,
		"byteOffset":0,
		"target":34963,
		"byteLength":1776
	},
	{
		"buffer":1,
		"byteOffset":1776,
		"target":34962,
		"byteLength":8160,
		"byteStride":32
	},
	{
		"buffer":2,
		"byteOffset":0,
		"target":34963,
		"byteLength":564
	},
	{
		"buffer":2,
		"byteOffset":564,
		"target":34962,
		"byteLength":3200,
		"byteStride":32
	}],
	"buffers":[{
		"uri":"data:application/octet-stream;base64,",
		"byteLength":12656
	},
	{
		"uri":"data:application/octet-stream;base64,",
		"byteLength":9936
	},
	{
		"uri":"data:application/octet-stream;base64,",
		"byteLength":3764
	}]
}