{"asset":{"version":"2.0","generator":"Unity 2021.3.31f1 glTFast 5.0.5"},"nodes":[{"name":"FlatGreenBlouse","mesh":0,"translation":[-6.38184834,0.06799999,-1.36924791],"rotation":[0,0.00763499457,0,0.9999709]}],"buffers":[{"uri":"FlatGreenBlouse.bin","byteLength":134448}],"bufferViews":[{"buffer":0,"byteLength":36624},{"buffer":0,"byteLength":81520,"byteOffset":36624,"byteStride":40},{"buffer":0,"byteLength":16304,"byteOffset":118144,"byteStride":8}],"accessors":[{"bufferView":1,"componentType":5126,"count":2038,"type":"VEC3","max":[0.284985662,0.603661656,0.06410541],"min":[-0.273320079,-0.001747489,-0.0389448255]},{"bufferView":1,"componentType":5126,"count":2038,"type":"VEC3","byteOffset":12},{"bufferView":1,"componentType":5126,"count":2038,"type":"VEC4","byteOffset":24},{"bufferView":2,"componentType":5126,"count":2038,"type":"VEC2"},{"bufferView":0,"componentType":5125,"count":9156,"type":"SCALAR"}],"images":[{"name":"fabric_138_normal-2K 1.png","uri":"fabric_138_normal-2K 1.png","mimeType":"image/png"},{"name":"glb.png","uri":"glb.png","mimeType":"image/png"}],"materials":[{"name":"Material.030","pbrMetallicRoughness":{"metallicFactor":0,"baseColorTexture":{"index":1}},"normalTexture":{"index":0},"doubleSided":true}],"meshes":[{"name":"FlatGreenBlouse","primitives":[{"attributes":{"POSITION":0,"NORMAL":1,"TANGENT":2,"TEXCOORD_0":3},"indices":4,"material":0}]}],"samplers":[{"minFilter":9987}],"scene":0,"scenes":[{"name":"FlatGreenBlouse","nodes":[0]}],"textures":[{"source":0},{"source":1,"sampler":0}]}