{"asset":{"version":"2.0","generator":"Unity 2021.3.31f1 glTFast 5.0.5"},"nodes":[{"name":"MESH_M_FEET_01_B","mesh":0,"rotation":[-0.7071068,0,0,0.7071068]}],"buffers":[{"uri":"MESH_M_FEET_01_B.bin","byteLength":77140}],"bufferViews":[{"buffer":0,"byteLength":11880},{"buffer":0,"byteLength":50200,"byteOffset":11880,"byteStride":40},{"buffer":0,"byteLength":15060,"byteOffset":62080,"byteStride":12}],"accessors":[{"bufferView":1,"componentType":5126,"count":1255,"type":"VEC3","max":[0.226129085,0.159644768,0.153360069],"min":[-0.226129085,-0.1462618,0.00178688765]},{"bufferView":1,"componentType":5126,"count":1255,"type":"VEC3","byteOffset":12},{"bufferView":1,"componentType":5126,"count":1255,"type":"VEC4","byteOffset":24},{"bufferView":2,"componentType":5121,"count":1255,"type":"VEC4"},{"bufferView":2,"componentType":5126,"count":1255,"type":"VEC2","byteOffset":4},{"bufferView":0,"componentType":5123,"count":5940,"type":"SCALAR"}],"images":[{"name":"TEX_M_FEET_01_R_NAO.png","uri":"TEX_M_FEET_01_R_NAO.png","mimeType":"image/png"},{"name":"TEX_M_FEET_01_R_DO.jpg","uri":"TEX_M_FEET_01_R_DO.jpg","mimeType":"image/jpeg"}],"materials":[{"name":"MAT_M_FEET_01","pbrMetallicRoughness":{"metallicFactor":0,"roughnessFactor":0.5,"baseColorTexture":{"index":1}},"normalTexture":{"index":0}}],"meshes":[{"name":"MESH_M_FEET_01_B","primitives":[{"attributes":{"POSITION":0,"NORMAL":1,"TANGENT":2,"TEXCOORD_0":4,"COLOR_0":3},"indices":5,"material":0}]}],"scene":0,"scenes":[{"name":"MESH_M_FEET_01_B","nodes":[0]}],"textures":[{"source":0},{"source":1}]}