{"asset":{"version":"2.0","generator":"Unity 2021.3.31f1 glTFast 5.0.5"},"nodes":[{"name":"MESH_M_LEGS_01_W_B","mesh":0,"translation":[0,0.141000018,-1.49011612E-08],"rotation":[-0.7071068,0,0,0.7071068]}],"buffers":[{"uri":"MESH_M_LEGS_01_W_B.bin","byteLength":123024}],"bufferViews":[{"buffer":0,"byteLength":20220},{"buffer":0,"byteLength":79080,"byteOffset":20220,"byteStride":40},{"buffer":0,"byteLength":23724,"byteOffset":99300,"byteStride":12}],"accessors":[{"bufferView":1,"componentType":5126,"count":1977,"type":"VEC3","max":[0.220608741,0.119353294,0.8799708],"min":[-0.220608741,-0.173083365,0.00361251831]},{"bufferView":1,"componentType":5126,"count":1977,"type":"VEC3","byteOffset":12},{"bufferView":1,"componentType":5126,"count":1977,"type":"VEC4","byteOffset":24},{"bufferView":2,"componentType":5121,"count":1977,"type":"VEC4"},{"bufferView":2,"componentType":5126,"count":1977,"type":"VEC2","byteOffset":4},{"bufferView":0,"componentType":5123,"count":10110,"type":"SCALAR"}],"images":[{"name":"TEX_M_LEGS_01_B_NAO.png","uri":"TEX_M_LEGS_01_B_NAO.png","mimeType":"image/png"},{"name":"TEX_M_LEGS_01_W_B_DO.jpg","uri":"TEX_M_LEGS_01_W_B_DO.jpg","mimeType":"image/jpeg"}],"materials":[{"name":"MAT_M_LEGS_01_W_B","pbrMetallicRoughness":{"metallicFactor":0,"roughnessFactor":0.6,"baseColorTexture":{"index":1}},"normalTexture":{"index":0}}],"meshes":[{"name":"short","primitives":[{"attributes":{"POSITION":0,"NORMAL":1,"TANGENT":2,"TEXCOORD_0":4,"COLOR_0":3},"indices":5,"material":0}]}],"scene":0,"scenes":[{"name":"MESH_M_LEGS_01_W_B","nodes":[0]}],"textures":[{"source":0},{"source":1}]}