{"asset":{"version":"2.0","generator":"Unity 2021.3.31f1 glTFast 5.0.5"},"nodes":[{"name":"MESH_F_LEGS_02_W_B","mesh":0,"translation":[-215.135,-0.126999959,73.767],"rotation":[-0.7071069,0,0,0.7071067]}],"buffers":[{"uri":"short.bin","byteLength":175112}],"bufferViews":[{"buffer":0,"byteLength":21288},{"buffer":0,"byteLength":80960,"byteOffset":21288,"byteStride":40},{"buffer":0,"byteLength":72864,"byteOffset":102248,"byteStride":36}],"accessors":[{"bufferView":1,"componentType":5126,"count":2024,"type":"VEC3","max":[0.213793159,0.0959768,0.942249537],"min":[-0.213793159,-0.15774259,0.00217628479]},{"bufferView":1,"componentType":5126,"count":2024,"type":"VEC3","byteOffset":12},{"bufferView":1,"componentType":5126,"count":2024,"type":"VEC4","byteOffset":24},{"bufferView":2,"componentType":5121,"count":2024,"type":"VEC4"},{"bufferView":2,"componentType":5126,"count":2024,"type":"VEC2","byteOffset":4},{"bufferView":2,"componentType":5126,"count":2024,"type":"VEC2","byteOffset":12},{"bufferView":2,"componentType":5126,"count":2024,"type":"VEC2","byteOffset":20},{"bufferView":2,"componentType":5126,"count":2024,"type":"VEC2","byteOffset":28},{"bufferView":0,"componentType":5123,"count":10644,"type":"SCALAR"}],"images":[{"name":"TEX_F_LEGS_02_W_B_DO.jpg","uri":"TEX_F_LEGS_02_W_B_DO.jpg","mimeType":"image/jpeg"}],"materials":[{"name":"MAT_F_LEGS_02_W_B","pbrMetallicRoughness":{"metallicFactor":0,"roughnessFactor":0.5,"baseColorTexture":{"index":0}}}],"meshes":[{"name":"MESH_F_LEGS_02_W_B","primitives":[{"attributes":{"POSITION":0,"NORMAL":1,"TANGENT":2,"TEXCOORD_0":4,"TEXCOORD_1":5,"TEXCOORD_2":6,"TEXCOORD_3":7,"COLOR_0":3},"indices":8,"material":0}]}],"scene":0,"scenes":[{"name":"MESH_F_LEGS_02_W_B","nodes":[0]}],"textures":[{"source":0}]}