{"asset":{"version":"2.0","generator":"Unity 2021.3.31f1 glTFast 5.0.5"},"nodes":[{"name":"HangingBlackPant","mesh":0}],"buffers":[{"uri":"HangingBlackPant.bin","byteLength":510552}],"bufferViews":[{"buffer":0,"byteLength":86568},{"buffer":0,"byteLength":423984,"byteOffset":86568,"byteStride":48}],"accessors":[{"bufferView":1,"componentType":5126,"count":8833,"type":"VEC3","max":[0.03644818,0.835707963,0.2224719],"min":[-0.0345799327,-0.00276386738,-0.221575677]},{"bufferView":1,"componentType":5126,"count":8833,"type":"VEC3","byteOffset":12},{"bufferView":1,"componentType":5126,"count":8833,"type":"VEC4","byteOffset":24},{"bufferView":1,"componentType":5126,"count":8833,"type":"VEC2","byteOffset":40},{"bufferView":0,"componentType":5125,"count":21642,"type":"SCALAR"}],"materials":[{"name":"Material.013","pbrMetallicRoughness":{"baseColorFactor":[0,0,0,1],"metallicFactor":0,"roughnessFactor":0.5},"doubleSided":true}],"meshes":[{"name":"HangingGrayPant","primitives":[{"attributes":{"POSITION":0,"NORMAL":1,"TANGENT":2,"TEXCOORD_0":3},"indices":4,"material":0}]}],"scene":0,"scenes":[{"name":"HangingBlackPant","nodes":[0]}]}