{"asset":{"version":"2.0","generator":"Unity 2021.3.31f1 glTFast 5.0.5"},"nodes":[{"name":"FoldedBlackPant","mesh":0,"translation":[8.568001,0.644139767,-1.33286452],"rotation":[0.000165879741,0.000165883466,-0.707106769,0.707106769]}],"buffers":[{"uri":"FoldedBlackPant.bin","byteLength":316968}],"bufferViews":[{"buffer":0,"byteLength":36936},{"buffer":0,"byteLength":233360,"byteOffset":36936,"byteStride":40},{"buffer":0,"byteLength":46672,"byteOffset":270296,"byteStride":8}],"accessors":[{"bufferView":1,"componentType":5126,"count":5834,"type":"VEC3","max":[0.00111079216,0.315022,0.160681382],"min":[-0.06589738,-0.346763849,-0.158590868]},{"bufferView":1,"componentType":5126,"count":5834,"type":"VEC3","byteOffset":12},{"bufferView":1,"componentType":5126,"count":5834,"type":"VEC4","byteOffset":24},{"bufferView":2,"componentType":5126,"count":5834,"type":"VEC2"},{"bufferView":0,"componentType":5125,"count":9234,"type":"SCALAR"}],"materials":[{"name":"Material.013","pbrMetallicRoughness":{"baseColorFactor":[0,0,0,1],"metallicFactor":0},"doubleSided":true}],"meshes":[{"name":"FoldedBlackPant","primitives":[{"attributes":{"POSITION":0,"NORMAL":1,"TANGENT":2,"TEXCOORD_0":3},"indices":4,"material":0}]}],"scene":0,"scenes":[{"name":"FoldedBlackPant","nodes":[0]}]}