{"asset":{"version":"2.0","generator":"Unity 2021.3.31f1 glTFast 5.0.5"},"nodes":[{"name":"FlatRedBlouse","mesh":0,"translation":[-8.602168,0.00100004673,-1.320193],"rotation":[0,-0.003621282,0,0.9999935]}],"buffers":[{"uri":"FlatRedBlouse.bin","byteLength":127560}],"bufferViews":[{"buffer":0,"byteLength":34632},{"buffer":0,"byteLength":77440,"byteOffset":34632,"byteStride":40},{"buffer":0,"byteLength":15488,"byteOffset":112072,"byteStride":8}],"accessors":[{"bufferView":1,"componentType":5126,"count":1936,"type":"VEC3","max":[0.249396235,0.6028203,0.04862812],"min":[-0.3089095,-0.00258886814,-0.05442211]},{"bufferView":1,"componentType":5126,"count":1936,"type":"VEC3","byteOffset":12},{"bufferView":1,"componentType":5126,"count":1936,"type":"VEC4","byteOffset":24},{"bufferView":2,"componentType":5126,"count":1936,"type":"VEC2"},{"bufferView":0,"componentType":5125,"count":8658,"type":"SCALAR"}],"images":[{"name":"fabric_138_normal-2K 1.png","uri":"fabric_138_normal-2K 1.png","mimeType":"image/png"},{"name":"glb.png","uri":"glb.png","mimeType":"image/png"}],"materials":[{"name":"Material.011","pbrMetallicRoughness":{"metallicFactor":0,"roughnessFactor":0.5,"baseColorTexture":{"index":1}},"normalTexture":{"index":0},"doubleSided":true}],"meshes":[{"name":"FlatRedBlouse","primitives":[{"attributes":{"POSITION":0,"NORMAL":1,"TANGENT":2,"TEXCOORD_0":3},"indices":4,"material":0}]}],"samplers":[{"minFilter":9987}],"scene":0,"scenes":[{"name":"FlatRedBlouse","nodes":[0]}],"textures":[{"source":0},{"source":1,"sampler":0}]}