{"asset":{"version":"2.0","generator":"Unity 2021.3.31f1 glTFast 5.0.5"},"nodes":[{"name":"WizardHat","mesh":0,"translation":[9.897036,0.307176143,-3.94276834],"scale":[0.0319208,0.0319208,0.0319208]}],"buffers":[{"uri":"WizardHat.bin","byteLength":338352}],"bufferViews":[{"buffer":0,"byteLength":97920},{"buffer":0,"byteLength":200360,"byteOffset":97920,"byteStride":40},{"buffer":0,"byteLength":40072,"byteOffset":298280,"byteStride":8}],"accessors":[{"bufferView":1,"componentType":5126,"count":5009,"type":"VEC3","max":[6.1081543,7.00218058,6.81899166],"min":[-7.23068237,-0.138386726,-5.573058]},{"bufferView":1,"componentType":5126,"count":5009,"type":"VEC3","byteOffset":12},{"bufferView":1,"componentType":5126,"count":5009,"type":"VEC4","byteOffset":24},{"bufferView":2,"componentType":5126,"count":5009,"type":"VEC2"},{"bufferView":0,"componentType":5125,"count":24480,"type":"SCALAR"}],"images":[{"name":"Blue Magic Hat_Normal 1.png","uri":"Blue Magic Hat_Normal 1.png","mimeType":"image/png"},{"name":"Blue Magic Hat_BaseColor.jpg","uri":"Blue Magic Hat_BaseColor.jpg","mimeType":"image/jpeg"}],"materials":[{"name":"Blue Magic Hat_BaseColor","pbrMetallicRoughness":{"metallicFactor":0,"roughnessFactor":0.557999969,"baseColorTexture":{"index":1}},"normalTexture":{"index":0}}],"meshes":[{"name":"WizardHat","primitives":[{"attributes":{"POSITION":0,"NORMAL":1,"TANGENT":2,"TEXCOORD_0":3},"indices":4,"material":0}]}],"scene":0,"scenes":[{"name":"WizardHat","nodes":[0]}],"textures":[{"source":0},{"source":1}]}