{"asset":{"version":"2.0","generator":"Unity 2022.3.12f1 glTFast 6.0.1"},"nodes":[{"name":"Primitive_1","mesh":0},{"name":"Primitive_2","mesh":1},{"name":"Primitive_3","mesh":2},{"name":"Primitive_4","mesh":3},{"name":"Primitive_5","mesh":4},{"name":"Primitive_6","mesh":5},{"name":"Primitive_7","mesh":6},{"name":"Primitive_8","mesh":7},{"name":"Primitive_9","mesh":8},{"name":"Primitive_10","mesh":9},{"name":"Primitive_11","mesh":10},{"name":"Primitive_12","mesh":11},{"name":"Primitive_13","mesh":12},{"name":"Primitive_14","mesh":13},{"name":"Primitive_15","mesh":14},{"name":"Primitive_16","mesh":15},{"name":"Primitive_17","mesh":16},{"name":"Primitive_18","mesh":17},{"name":"Primitive_19","mesh":18},{"name":"Primitive_20","mesh":19},{"name":"Primitive_21","mesh":20},{"name":"Primitive_22","mesh":21},{"name":"Primitive_23","mesh":22},{"name":"Primitive_24","mesh":23},{"name":"Primitive_25","mesh":24},{"name":"Primitive_26","mesh":25},{"name":"Primitive_27","mesh":26},{"name":"Primitive_28","mesh":27},{"name":"Primitive_29","mesh":28},{"name":"Primitive_30","mesh":29},{"name":"shirt","children":[0,1,2,3,4,5,6,7,8,9,10,11,12,13,14,15,16,17,18,19,20,21,22,23,24,25,26,27,28,29],"mesh":30,"translation":[0.019,0.2031892,24.737],"rotation":[-0.7272813,0,0,0.686339557],"scale":[0.0134259844,0.0134259844,0.0134259844]}],"buffers":[{"uri":"shirt.bin","byteLength":2194716}],"bufferViews":[{"buffer":0,"byteLength":12492},{"buffer":0,"byteLength":1716,"byteOffset":12492},{"buffer":0,"byteLength":2436,"byteOffset":14208},{"buffer":0,"byteLength":14952,"byteOffset":16644},{"buffer":0,"byteLength":20736,"byteOffset":31596},{"buffer":0,"byteLength":14952,"byteOffset":52332},{"buffer":0,"byteLength":20736,"byteOffset":67284},{"buffer":0,"byteLength":14952,"byteOffset":88020},{"buffer":0,"byteLength":20736,"byteOffset":102972},{"buffer":0,"byteLength":14952,"byteOffset":123708},{"buffer":0,"byteLength":20736,"byteOffset":138660},{"buffer":0,"byteLength":14952,"byteOffset":159396},{"buffer":0,"byteLength":20736,"byteOffset":174348},{"buffer":0,"byteLength":14952,"byteOffset":195084},{"buffer":0,"byteLength":20736,"byteOffset":210036},{"buffer":0,"byteLength":1896,"byteOffset":230772},{"buffer":0,"byteLength":9624,"byteOffset":232668},{"buffer":0,"byteLength":9816,"byteOffset":242292},{"buffer":0,"byteLength":1896,"byteOffset":252108},{"buffer":0,"byteLength":12768,"byteOffset":254004},{"buffer":0,"byteLength":1188,"byteOffset":266772},{"buffer":0,"byteLength":13008,"byteOffset":267960},{"buffer":0,"byteLength":1140,"byteOffset":280968},{"buffer":0,"byteLength":96,"byteOffset":282108},{"buffer":0,"byteLength":96,"byteOffset":282204},{"buffer":0,"byteLength":132,"byteOffset":282300},{"buffer":0,"byteLength":96,"byteOffset":282432},{"buffer":0,"byteLength":72,"byteOffset":282528},{"buffer":0,"byteLength":144,"byteOffset":282600},{"buffer":0,"byteLength":96,"byteOffset":282744},{"buffer":0,"byteLength":12708,"byteOffset":282840},{"buffer":0,"byteLength":61992,"byteOffset":295548,"byteStride":24},{"buffer":0,"byteLength":20664,"byteOffset":357540,"byteStride":8},{"buffer":0,"byteLength":8904,"byteOffset":378204,"byteStride":24},{"buffer":0,"byteLength":2968,"byteOffset":387108,"byteStride":8},{"buffer":0,"byteLength":12480,"byteOffset":390076,"byteStride":24},{"buffer":0,"byteLength":4160,"byteOffset":402556,"byteStride":8},{"buffer":0,"byteLength":70920,"byteOffset":406716,"byteStride":24},{"buffer":0,"byteLength":23640,"byteOffset":477636,"byteStride":8},{"buffer":0,"byteLength":99192,"byteOffset":501276,"byteStride":24},{"buffer":0,"byteLength":33064,"byteOffset":600468,"byteStride":8},{"buffer":0,"byteLength":70920,"byteOffset":633532,"byteStride":24},{"buffer":0,"byteLength":23640,"byteOffset":704452,"byteStride":8},{"buffer":0,"byteLength":99192,"byteOffset":728092,"byteStride":24},{"buffer":0,"byteLength":33064,"byteOffset":827284,"byteStride":8},{"buffer":0,"byteLength":99192,"byteOffset":860348,"byteStride":24},{"buffer":0,"byteLength":33064,"byteOffset":959540,"byteStride":8},{"buffer":0,"byteLength":70920,"byteOffset":992604,"byteStride":24},{"buffer":0,"byteLength":23640,"byteOffset":1063524,"byteStride":8},{"buffer":0,"byteLength":99192,"byteOffset":1087164,"byteStride":24},{"buffer":0,"byteLength":33064,"byteOffset":1186356,"byteStride":8},{"buffer":0,"byteLength":70920,"byteOffset":1219420,"byteStride":24},{"buffer":0,"byteLength":23640,"byteOffset":1290340,"byteStride":8},{"buffer":0,"byteLength":99192,"byteOffset":1313980,"byteStride":24},{"buffer":0,"byteLength":33064,"byteOffset":1413172,"byteStride":8},{"buffer":0,"byteLength":70920,"byteOffset":1446236,"byteStride":24},{"buffer":0,"byteLength":23640,"byteOffset":1517156,"byteStride":8},{"buffer":0,"byteLength":99192,"byteOffset":1540796,"byteStride":24},{"buffer":0,"byteLength":33064,"byteOffset":1639988,"byteStride":8},{"buffer":0,"byteLength":9456,"byteOffset":1673052,"byteStride":24},{"buffer":0,"byteLength":3152,"byteOffset":1682508,"byteStride":8},{"buffer":0,"byteLength":47664,"byteOffset":1685660,"byteStride":24},{"buffer":0,"byteLength":15888,"byteOffset":1733324,"byteStride":8},{"buffer":0,"byteLength":48864,"byteOffset":1749212,"byteStride":24},{"buffer":0,"byteLength":16288,"byteOffset":1798076,"byteStride":8},{"buffer":0,"byteLength":9360,"byteOffset":1814364,"byteStride":24},{"buffer":0,"byteLength":3120,"byteOffset":1823724,"byteStride":8},{"buffer":0,"byteLength":63072,"byteOffset":1826844,"byteStride":24},{"buffer":0,"byteLength":21024,"byteOffset":1889916,"byteStride":8},{"buffer":0,"byteLength":5880,"byteOffset":1910940,"byteStride":24},{"buffer":0,"byteLength":1960,"byteOffset":1916820,"byteStride":8},{"buffer":0,"byteLength":64152,"byteOffset":1918780,"byteStride":24},{"buffer":0,"byteLength":21384,"byteOffset":1982932,"byteStride":8},{"buffer":0,"byteLength":5688,"byteOffset":2004316,"byteStride":24},{"buffer":0,"byteLength":1896,"byteOffset":2010004,"byteStride":8},{"buffer":0,"byteLength":456,"byteOffset":2011900,"byteStride":24},{"buffer":0,"byteLength":152,"byteOffset":2012356,"byteStride":8},{"buffer":0,"byteLength":624,"byteOffset":2012508,"byteStride":24},{"buffer":0,"byteLength":208,"byteOffset":2013132,"byteStride":8},{"buffer":0,"byteLength":336,"byteOffset":2013340,"byteStride":24},{"buffer":0,"byteLength":112,"byteOffset":2013676,"byteStride":8},{"buffer":0,"byteLength":648,"byteOffset":2013788,"byteStride":24},{"buffer":0,"byteLength":216,"byteOffset":2014436,"byteStride":8},{"buffer":0,"byteLength":456,"byteOffset":2014652,"byteStride":24},{"buffer":0,"byteLength":152,"byteOffset":2015108,"byteStride":8},{"buffer":0,"byteLength":62760,"byteOffset":2015260,"byteStride":24},{"buffer":0,"byteLength":20920,"byteOffset":2078020,"byteStride":8},{"buffer":0,"byteLength":456,"byteOffset":2098940,"byteStride":24},{"buffer":0,"byteLength":152,"byteOffset":2099396,"byteStride":8},{"buffer":0,"byteLength":456,"byteOffset":2099548,"byteStride":24},{"buffer":0,"byteLength":152,"byteOffset":2100004,"byteStride":8},{"buffer":0,"byteLength":70920,"byteOffset":2100156,"byteStride":24},{"buffer":0,"byteLength":23640,"byteOffset":2171076,"byteStride":8}],"accessors":[{"bufferView":31,"componentType":5126,"count":2583,"type":"VEC3","max":[1.21210814,11.5321445,91.47641],"min":[-14.4718876,-0.920064,53.1952362]},{"bufferView":31,"componentType":5126,"count":2583,"type":"VEC3","byteOffset":12},{"bufferView":32,"componentType":5126,"count":2583,"type":"VEC2"},{"bufferView":0,"componentType":5125,"count":3123,"type":"SCALAR"},{"bufferView":33,"componentType":5126,"count":371,"type":"VEC3","max":[4.752737,5.169986,94.0932846],"min":[-4.658081,-4.182683,88.2595]},{"bufferView":33,"componentType":5126,"count":371,"type":"VEC3","byteOffset":12},{"bufferView":34,"componentType":5126,"count":371,"type":"VEC2"},{"bufferView":1,"componentType":5125,"count":429,"type":"SCALAR"},{"bufferView":35,"componentType":5126,"count":520,"type":"VEC3","max":[5.425291,5.26866436,94.0932846],"min":[-5.316593,-4.438054,87.5302353]},{"bufferView":35,"componentType":5126,"count":520,"type":"VEC3","byteOffset":12},{"bufferView":36,"componentType":5126,"count":520,"type":"VEC2"},{"bufferView":2,"componentType":5125,"count":609,"type":"SCALAR"},{"bufferView":37,"componentType":5126,"count":2955,"type":"VEC3","max":[1.303291,6.756345,86.42329],"min":[0.271625042,6.008898,85.41184]},{"bufferView":37,"componentType":5126,"count":2955,"type":"VEC3","byteOffset":12},{"bufferView":38,"componentType":5126,"count":2955,"type":"VEC2"},{"bufferView":3,"componentType":5125,"count":3738,"type":"SCALAR"},{"bufferView":39,"componentType":5126,"count":4133,"type":"VEC3","max":[0.925498,6.54630852,86.05657],"min":[0.675987959,6.244158,85.7878952]},{"bufferView":39,"componentType":5126,"count":4133,"type":"VEC3","byteOffset":12},{"bufferView":40,"componentType":5126,"count":4133,"type":"VEC2"},{"bufferView":4,"componentType":5125,"count":5184,"type":"SCALAR"},{"bufferView":41,"componentType":5126,"count":2955,"type":"VEC3","max":[1.253233,9.068119,81.1948242],"min":[0.235797048,8.54829,80.16342]},{"bufferView":41,"componentType":5126,"count":2955,"type":"VEC3","byteOffset":12},{"bufferView":42,"componentType":5126,"count":2955,"type":"VEC2"},{"bufferView":5,"componentType":5125,"count":3738,"type":"SCALAR"},{"bufferView":43,"componentType":5126,"count":4133,"type":"VEC3","max":[0.858485,8.983383,80.7908],"min":[0.649871,8.668758,80.57468]},{"bufferView":43,"componentType":5126,"count":4133,"type":"VEC3","byteOffset":12},{"bufferView":44,"componentType":5126,"count":4133,"type":"VEC2"},{"bufferView":6,"componentType":5125,"count":5184,"type":"SCALAR"},{"bufferView":91,"componentType":5126,"count":2955,"type":"VEC3","max":[1.038711,9.705378,75.77065],"min":[0.0154399872,9.236799,74.75155]},{"bufferView":91,"componentType":5126,"count":2955,"type":"VEC3","byteOffset":12},{"bufferView":92,"componentType":5126,"count":2955,"type":"VEC2"},{"bufferView":7,"componentType":5125,"count":3738,"type":"SCALAR"},{"bufferView":45,"componentType":5126,"count":4133,"type":"VEC3","max":[0.65002,9.646014,75.36705],"min":[0.427847981,9.332892,75.1574249]},{"bufferView":45,"componentType":5126,"count":4133,"type":"VEC3","byteOffset":12},{"bufferView":46,"componentType":5126,"count":4133,"type":"VEC2"},{"bufferView":8,"componentType":5125,"count":5184,"type":"SCALAR"},{"bufferView":47,"componentType":5126,"count":2955,"type":"VEC3","max":[0.83849,10.4150066,70.46678],"min":[-0.180956,10.0258732,69.4605255]},{"bufferView":47,"componentType":5126,"count":2955,"type":"VEC3","byteOffset":12},{"bufferView":48,"componentType":5126,"count":2955,"type":"VEC2"},{"bufferView":9,"componentType":5125,"count":3738,"type":"SCALAR"},{"bufferView":49,"componentType":5126,"count":4133,"type":"VEC3","max":[0.443867981,10.395896,70.06063],"min":[0.234203979,10.0817366,69.86468]},{"bufferView":49,"componentType":5126,"count":4133,"type":"VEC3","byteOffset":12},{"bufferView":50,"componentType":5126,"count":4133,"type":"VEC2"},{"bufferView":10,"componentType":5125,"count":5184,"type":"SCALAR"},{"bufferView":51,"componentType":5126,"count":2955,"type":"VEC3","max":[0.586853,11.19622,65.23248],"min":[-0.444985032,10.6539993,64.22876]},{"bufferView":51,"componentType":5126,"count":2955,"type":"VEC3","byteOffset":12},{"bufferView":52,"componentType":5126,"count":2955,"type":"VEC2"},{"bufferView":11,"componentType":5125,"count":3738,"type":"SCALAR"},{"bufferView":53,"componentType":5126,"count":4133,"type":"VEC3","max":[0.198281,11.0991821,64.82315],"min":[-0.03469099,10.7795372,64.63455]},{"bufferView":53,"componentType":5126,"count":4133,"type":"VEC3","byteOffset":12},{"bufferView":54,"componentType":5126,"count":4133,"type":"VEC2"},{"bufferView":12,"componentType":5125,"count":5184,"type":"SCALAR"},{"bufferView":55,"componentType":5126,"count":2955,"type":"VEC3","max":[0.304891,11.7959518,60.0493851],"min":[-0.714605,11.3984623,59.04107]},{"bufferView":55,"componentType":5126,"count":2955,"type":"VEC3","byteOffset":12},{"bufferView":56,"componentType":5126,"count":2955,"type":"VEC2"},{"bufferView":13,"componentType":5125,"count":3738,"type":"SCALAR"},{"bufferView":57,"componentType":5126,"count":4133,"type":"VEC3","max":[-0.07982099,11.7724915,59.65041],"min":[-0.306749,11.4555969,59.43272]},{"bufferView":57,"componentType":5126,"count":4133,"type":"VEC3","byteOffset":12},{"bufferView":58,"componentType":5126,"count":4133,"type":"VEC2"},{"bufferView":14,"componentType":5125,"count":5184,"type":"SCALAR"},{"bufferView":59,"componentType":5126,"count":394,"type":"VEC3","max":[14.731781,-0.862303734,91.99614],"min":[-0.173480034,-7.126671,84.97102]},{"bufferView":59,"componentType":5126,"count":394,"type":"VEC3","byteOffset":12},{"bufferView":60,"componentType":5126,"count":394,"type":"VEC2"},{"bufferView":15,"componentType":5125,"count":474,"type":"SCALAR"},{"bufferView":61,"componentType":5126,"count":1986,"type":"VEC3","max":[14.07923,2.691854,85.9217453],"min":[-0.34510994,-7.830895,52.8407364]},{"bufferView":61,"componentType":5126,"count":1986,"type":"VEC3","byteOffset":12},{"bufferView":62,"componentType":5126,"count":1986,"type":"VEC2"},{"bufferView":16,"componentType":5125,"count":2406,"type":"SCALAR"},{"bufferView":63,"componentType":5126,"count":2036,"type":"VEC3","max":[-0.0470957756,2.14728355,86.1483459],"min":[-14.1651535,-7.829462,52.9524879]},{"bufferView":63,"componentType":5126,"count":2036,"type":"VEC3","byteOffset":12},{"bufferView":64,"componentType":5126,"count":2036,"type":"VEC2"},{"bufferView":17,"componentType":5125,"count":2454,"type":"SCALAR"},{"bufferView":65,"componentType":5126,"count":390,"type":"VEC3","max":[-0.129370213,-0.5085368,92.11577],"min":[-14.4718895,-7.050072,85.30252]},{"bufferView":65,"componentType":5126,"count":390,"type":"VEC3","byteOffset":12},{"bufferView":66,"componentType":5126,"count":390,"type":"VEC2"},{"bufferView":18,"componentType":5125,"count":474,"type":"SCALAR"},{"bufferView":67,"componentType":5126,"count":2628,"type":"VEC3","max":[-10.6705341,4.78782,86.07236],"min":[-26.9578686,-5.818885,55.6196022]},{"bufferView":67,"componentType":5126,"count":2628,"type":"VEC3","byteOffset":12},{"bufferView":68,"componentType":5126,"count":2628,"type":"VEC2"},{"bufferView":19,"componentType":5125,"count":3192,"type":"SCALAR"},{"bufferView":69,"componentType":5126,"count":245,"type":"VEC3","max":[-22.9522915,5.651636,57.8206863],"min":[-28.4593449,0.093873024,52.3855972]},{"bufferView":69,"componentType":5126,"count":245,"type":"VEC3","byteOffset":12},{"bufferView":70,"componentType":5126,"count":245,"type":"VEC2"},{"bufferView":20,"componentType":5125,"count":297,"type":"SCALAR"},{"bufferView":71,"componentType":5126,"count":2673,"type":"VEC3","max":[27.16689,4.952313,85.8066559],"min":[10.7315521,-5.832043,55.07498]},{"bufferView":71,"componentType":5126,"count":2673,"type":"VEC3","byteOffset":12},{"bufferView":72,"componentType":5126,"count":2673,"type":"VEC2"},{"bufferView":21,"componentType":5125,"count":3252,"type":"SCALAR"},{"bufferView":73,"componentType":5126,"count":237,"type":"VEC3","max":[28.5833778,5.944413,57.25556],"min":[23.2280388,0.134516954,51.92579]},{"bufferView":73,"componentType":5126,"count":237,"type":"VEC3","byteOffset":12},{"bufferView":74,"componentType":5126,"count":237,"type":"VEC2"},{"bufferView":22,"componentType":5125,"count":285,"type":"SCALAR"},{"bufferView":75,"componentType":5126,"count":19,"type":"VEC3","max":[1.364218,6.394348,86.20334],"min":[0.146741986,5.95245171,85.46367]},{"bufferView":75,"componentType":5126,"count":19,"type":"VEC3","byteOffset":12},{"bufferView":76,"componentType":5126,"count":19,"type":"VEC2"},{"bufferView":23,"componentType":5125,"count":24,"type":"SCALAR"},{"bufferView":87,"componentType":5126,"count":19,"type":"VEC3","max":[1.265548,6.419717,86.23099],"min":[0.07243204,5.959442,85.4852]},{"bufferView":87,"componentType":5126,"count":19,"type":"VEC3","byteOffset":12},{"bufferView":88,"componentType":5126,"count":19,"type":"VEC2"},{"bufferView":24,"componentType":5125,"count":24,"type":"SCALAR"},{"bufferView":77,"componentType":5126,"count":26,"type":"VEC3","max":[1.404783,8.654295,80.9551849],"min":[0.100424051,8.478109,80.32707]},{"bufferView":77,"componentType":5126,"count":26,"type":"VEC3","byteOffset":12},{"bufferView":78,"componentType":5126,"count":26,"type":"VEC2"},{"bufferView":25,"componentType":5125,"count":33,"type":"SCALAR"},{"bufferView":89,"componentType":5126,"count":19,"type":"VEC3","max":[1.113222,9.376755,75.52777],"min":[-0.12974596,9.125492,74.95035]},{"bufferView":89,"componentType":5126,"count":19,"type":"VEC3","byteOffset":12},{"bufferView":90,"componentType":5126,"count":19,"type":"VEC2"},{"bufferView":26,"componentType":5125,"count":24,"type":"SCALAR"},{"bufferView":79,"componentType":5126,"count":14,"type":"VEC3","max":[0.918237,10.0571012,70.24484],"min":[-0.309559,9.900659,69.68169]},{"bufferView":79,"componentType":5126,"count":14,"type":"VEC3","byteOffset":12},{"bufferView":80,"componentType":5126,"count":14,"type":"VEC2"},{"bufferView":27,"componentType":5125,"count":18,"type":"SCALAR"},{"bufferView":81,"componentType":5126,"count":27,"type":"VEC3","max":[0.601591,10.8447514,65.0097],"min":[-0.56708,10.4677143,64.45591]},{"bufferView":81,"componentType":5126,"count":27,"type":"VEC3","byteOffset":12},{"bufferView":82,"componentType":5126,"count":27,"type":"VEC2"},{"bufferView":28,"componentType":5125,"count":36,"type":"SCALAR"},{"bufferView":83,"componentType":5126,"count":19,"type":"VEC3","max":[0.380071,11.4097824,59.8226929],"min":[-0.852384,11.2723312,59.2782745]},{"bufferView":83,"componentType":5126,"count":19,"type":"VEC3","byteOffset":12},{"bufferView":84,"componentType":5126,"count":19,"type":"VEC2"},{"bufferView":29,"componentType":5125,"count":24,"type":"SCALAR"},{"bufferView":85,"componentType":5126,"count":2615,"type":"VEC3","max":[14.731781,11.810442,91.43421],"min":[-2.02284241,-1.23469925,53.3704453]},{"bufferView":85,"componentType":5126,"count":2615,"type":"VEC3","byteOffset":12},{"bufferView":86,"componentType":5126,"count":2615,"type":"VEC2"},{"bufferView":30,"componentType":5125,"count":3177,"type":"SCALAR"}],"materials":[{"name":"glTF-Default-Material","pbrMetallicRoughness":{"metallicFactor":0}}],"meshes":[{"primitives":[{"attributes":{"POSITION":0,"NORMAL":1,"TEXCOORD_0":2},"indices":3,"material":0}]},{"primitives":[{"attributes":{"POSITION":4,"NORMAL":5,"TEXCOORD_0":6},"indices":7,"material":0}]},{"primitives":[{"attributes":{"POSITION":8,"NORMAL":9,"TEXCOORD_0":10},"indices":11,"material":0}]},{"primitives":[{"attributes":{"POSITION":12,"NORMAL":13,"TEXCOORD_0":14},"indices":15,"material":0}]},{"primitives":[{"attributes":{"POSITION":16,"NORMAL":17,"TEXCOORD_0":18},"indices":19,"material":0}]},{"primitives":[{"attributes":{"POSITION":20,"NORMAL":21,"TEXCOORD_0":22},"indices":23,"material":0}]},{"primitives":[{"attributes":{"POSITION":24,"NORMAL":25,"TEXCOORD_0":26},"indices":27,"material":0}]},{"primitives":[{"attributes":{"POSITION":28,"NORMAL":29,"TEXCOORD_0":30},"indices":31,"material":0}]},{"primitives":[{"attributes":{"POSITION":32,"NORMAL":33,"TEXCOORD_0":34},"indices":35,"material":0}]},{"primitives":[{"attributes":{"POSITION":36,"NORMAL":37,"TEXCOORD_0":38},"indices":39,"material":0}]},{"primitives":[{"attributes":{"POSITION":40,"NORMAL":41,"TEXCOORD_0":42},"indices":43,"material":0}]},{"primitives":[{"attributes":{"POSITION":44,"NORMAL":45,"TEXCOORD_0":46},"indices":47,"material":0}]},{"primitives":[{"attributes":{"POSITION":48,"NORMAL":49,"TEXCOORD_0":50},"indices":51,"material":0}]},{"primitives":[{"attributes":{"POSITION":52,"NORMAL":53,"TEXCOORD_0":54},"indices":55,"material":0}]},{"primitives":[{"attributes":{"POSITION":56,"NORMAL":57,"TEXCOORD_0":58},"indices":59,"material":0}]},{"primitives":[{"attributes":{"POSITION":60,"NORMAL":61,"TEXCOORD_0":62},"indices":63,"material":0}]},{"primitives":[{"attributes":{"POSITION":64,"NORMAL":65,"TEXCOORD_0":66},"indices":67,"material":0}]},{"primitives":[{"attributes":{"POSITION":68,"NORMAL":69,"TEXCOORD_0":70},"indices":71,"material":0}]},{"primitives":[{"attributes":{"POSITION":72,"NORMAL":73,"TEXCOORD_0":74},"indices":75,"material":0}]},{"primitives":[{"attributes":{"POSITION":76,"NORMAL":77,"TEXCOORD_0":78},"indices":79,"material":0}]},{"primitives":[{"attributes":{"POSITION":80,"NORMAL":81,"TEXCOORD_0":82},"indices":83,"material":0}]},{"primitives":[{"attributes":{"POSITION":84,"NORMAL":85,"TEXCOORD_0":86},"indices":87,"material":0}]},{"primitives":[{"attributes":{"POSITION":88,"NORMAL":89,"TEXCOORD_0":90},"indices":91,"material":0}]},{"primitives":[{"attributes":{"POSITION":92,"NORMAL":93,"TEXCOORD_0":94},"indices":95,"material":0}]},{"primitives":[{"attributes":{"POSITION":96,"NORMAL":97,"TEXCOORD_0":98},"indices":99,"material":0}]},{"primitives":[{"attributes":{"POSITION":100,"NORMAL":101,"TEXCOORD_0":102},"indices":103,"material":0}]},{"primitives":[{"attributes":{"POSITION":104,"NORMAL":105,"TEXCOORD_0":106},"indices":107,"material":0}]},{"primitives":[{"attributes":{"POSITION":108,"NORMAL":109,"TEXCOORD_0":110},"indices":111,"material":0}]},{"primitives":[{"attributes":{"POSITION":112,"NORMAL":113,"TEXCOORD_0":114},"indices":115,"material":0}]},{"primitives":[{"attributes":{"POSITION":116,"NORMAL":117,"TEXCOORD_0":118},"indices":119,"material":0}]},{"primitives":[{"attributes":{"POSITION":120,"NORMAL":121,"TEXCOORD_0":122},"indices":123,"material":0}]}],"scene":0,"scenes":[{"name":"shirt","nodes":[30]}]}