{"asset":{"version":"2.0","generator":"Unity 2022.3.12f1 glTFast 6.0.1"},"nodes":[{"name":"shirt","mesh":0,"translation":[-3.05090714,1.31734157,-7.76357]}],"buffers":[{"uri":"shirt.bin","byteLength":2194716}],"bufferViews":[{"buffer":0,"byteLength":295548},{"buffer":0,"byteLength":1899168,"byteOffset":295548,"byteStride":32}],"accessors":[{"bufferView":1,"componentType":5126,"count":59349,"type":"VEC3","max":[3.434667,-0.0533597469,7.80536652],"min":[2.66881227,-0.6231217,7.558996]},{"bufferView":1,"componentType":5126,"count":59349,"type":"VEC3","byteOffset":12},{"bufferView":1,"componentType":5126,"count":59349,"type":"VEC2","byteOffset":24},{"bufferView":0,"componentType":5125,"count":73887,"type":"SCALAR"}],"materials":[{"name":"glTF-Default-Material","pbrMetallicRoughness":{"metallicFactor":0}}],"meshes":[{"name":"shirt","primitives":[{"attributes":{"POSITION":0,"NORMAL":1,"TEXCOORD_0":2},"indices":3,"material":0}]}],"scene":0,"scenes":[{"name":"shirt","nodes":[0]}]}