{
	"asset":{
		"generator":"Khronos glTF Blender I/O v4.0.44",
		"version":"2.0"
	},
	"scene":0,
	"scenes":[
		{
			"name":"Scene",
			"nodes":[
				0
			]
		}
	],
	"nodes":[
		{
			"mesh":0,
			"name":"shirt",
			"rotation":[
				0,
				1,
				0,
				0
			],
			"scale":[
				0.997260332107544,
				0.997260332107544,
				0.997260332107544
			]
		}
	],
	"materials":[
		{
			"name":"glTF-Default-Material.001",
			"pbrMetallicRoughness":{
				"metallicFactor":0
			}
		}
	],
	"meshes":[
		{
			"name":"shirt",
			"primitives":[
				{
					"attributes":{
						"POSITION":0,
						"NORMAL":1,
						"TEXCOORD_0":2
					},
					"indices":3,
					"material":0
				}
			]
		}
	],
	"accessors":[
		{
			"bufferView":0,
			"componentType":5126,
			"count":68099,
			"max":[
				0.38009190559387207,
				0.2963666319847107,
				0.1934194564819336
			],
			"min":[
				-0.38576269149780273,
				-0.273395299911499,
				-0.052950382232666016
			],
			"type":"VEC3"
		},
		{
			"bufferView":1,
			"componentType":5126,
			"count":68099,
			"type":"VEC3"
		},
		{
			"bufferView":2,
			"componentType":5126,
			"count":68099,
			"type":"VEC2"
		},
		{
			"bufferView":3,
			"componentType":5125,
			"count":73887,
			"type":"SCALAR"
		}
	],
	"bufferViews":[
		{
			"buffer":0,
			"byteLength":817188,
			"byteOffset":0,
			"target":34962
		},
		{
			"buffer":0,
			"byteLength":817188,
			"byteOffset":817188,
			"target":34962
		},
		{
			"buffer":0,
			"byteLength":544792,
			"byteOffset":1634376,
			"target":34962
		},
		{
			"buffer":0,
			"byteLength":295548,
			"byteOffset":2179168,
			"target":34963
		}
	],
	"buffers":[
		{
			"byteLength":2474716,
			"uri":"shirt.bin"
		}
	]
}
