{"asset":{"version":"2.0","generator":"Unity 2021.3.31f1 glTFast 5.0.5"},"nodes":[{"name":"FlatPinkSweater","mesh":0}],"buffers":[{"uri":"FlatPinkSweater.bin","byteLength":456048}],"bufferViews":[{"buffer":0,"byteLength":81552},{"buffer":0,"byteLength":312080,"byteOffset":81552,"byteStride":40},{"buffer":0,"byteLength":62416,"byteOffset":393632,"byteStride":8}],"accessors":[{"bufferView":1,"componentType":5126,"count":7802,"type":"VEC3","max":[0.414997816,0.6512799,0.185797855],"min":[-0.315322876,0.0164839029,-0.188622251]},{"bufferView":1,"componentType":5126,"count":7802,"type":"VEC3","byteOffset":12},{"bufferView":1,"componentType":5126,"count":7802,"type":"VEC4","byteOffset":24},{"bufferView":2,"componentType":5126,"count":7802,"type":"VEC2"},{"bufferView":0,"componentType":5125,"count":20388,"type":"SCALAR"}],"images":[{"name":"glb.png","uri":"glb.png","mimeType":"image/png"},{"name":"glb.png","uri":"glb_0.png","mimeType":"image/png"}],"materials":[{"name":"Material.007","pbrMetallicRoughness":{"metallicFactor":0,"roughnessFactor":0.5,"baseColorTexture":{"index":1}},"normalTexture":{"index":0},"doubleSided":true}],"meshes":[{"name":"FlatPinkSweater","primitives":[{"attributes":{"POSITION":0,"NORMAL":1,"TANGENT":2,"TEXCOORD_0":3},"indices":4,"material":0}]}],"samplers":[{"minFilter":9987}],"scene":0,"scenes":[{"name":"FlatPinkSweater","nodes":[0]}],"textures":[{"source":0,"sampler":0},{"source":1,"sampler":0}]}