{"asset":{"version":"2.0","generator":"Unity 2021.3.31f1 glTFast 5.0.5"},"nodes":[{"name":"tshirt","mesh":0}],"buffers":[{"uri":"shirt.bin","byteLength":153492}],"bufferViews":[{"buffer":0,"byteLength":24480},{"buffer":0,"byteLength":99240,"byteOffset":24480,"byteStride":40},{"buffer":0,"byteLength":29772,"byteOffset":123720,"byteStride":12}],"accessors":[{"bufferView":1,"componentType":5126,"count":2481,"type":"VEC3","max":[0.507689059,0.161092728,1.60087919],"min":[-0.507689059,-0.1894013,0.946808338]},{"bufferView":1,"componentType":5126,"count":2481,"type":"VEC3","byteOffset":12},{"bufferView":1,"componentType":5126,"count":2481,"type":"VEC4","byteOffset":24},{"bufferView":2,"componentType":5121,"count":2481,"type":"VEC4"},{"bufferView":2,"componentType":5126,"count":2481,"type":"VEC2","byteOffset":4},{"bufferView":0,"componentType":5123,"count":12240,"type":"SCALAR"}],"images":[{"name":"TEX_M_TORSO_01_B_NAO.png","uri":"TEX_M_TORSO_01_B_NAO.png","mimeType":"image/png"},{"name":"TEX_M_TORSO_01_W_B_DO.jpg","uri":"TEX_M_TORSO_01_W_B_DO.jpg","mimeType":"image/jpeg"}],"materials":[{"name":"MAT_M_TORSO_01_W_B","pbrMetallicRoughness":{"metallicFactor":0,"roughnessFactor":0.6,"baseColorTexture":{"index":1}},"normalTexture":{"index":0}}],"meshes":[{"name":"MESH_M_TORSO_01_W_B","primitives":[{"attributes":{"POSITION":0,"NORMAL":1,"TANGENT":2,"TEXCOORD_0":4,"COLOR_0":3},"indices":5,"material":0}]}],"scene":0,"scenes":[{"name":"Test","nodes":[0]}],"textures":[{"source":0},{"source":1}]}