{"asset":{"version":"2.0","generator":"Unity 2021.3.31f1 glTFast 5.0.5"},"nodes":[{"name":"MESH_F_TORSO_02_B","mesh":0,"translation":[-215.135,0.737,73.767],"rotation":[-0.707106948,-1.49011612E-08,1.49011612E-08,0.7071066]}],"buffers":[{"uri":"shirt.bin","byteLength":176908}],"bufferViews":[{"buffer":0,"byteLength":20652},{"buffer":0,"byteLength":82240,"byteOffset":20652,"byteStride":40},{"buffer":0,"byteLength":74016,"byteOffset":102892,"byteStride":36}],"accessors":[{"bufferView":1,"componentType":5126,"count":2056,"type":"VEC3","max":[0.4711354,0.123769835,0.5939144],"min":[-0.4711354,-0.17450203,0.008746147]},{"bufferView":1,"componentType":5126,"count":2056,"type":"VEC3","byteOffset":12},{"bufferView":1,"componentType":5126,"count":2056,"type":"VEC4","byteOffset":24},{"bufferView":2,"componentType":5121,"count":2056,"type":"VEC4"},{"bufferView":2,"componentType":5126,"count":2056,"type":"VEC2","byteOffset":4},{"bufferView":2,"componentType":5126,"count":2056,"type":"VEC2","byteOffset":12},{"bufferView":2,"componentType":5126,"count":2056,"type":"VEC2","byteOffset":20},{"bufferView":2,"componentType":5126,"count":2056,"type":"VEC2","byteOffset":28},{"bufferView":0,"componentType":5123,"count":10326,"type":"SCALAR"}],"images":[{"name":"TEX_F_TORSO_02_W_B_DO.jpg","uri":"TEX_F_TORSO_02_W_B_DO.jpg","mimeType":"image/jpeg"}],"materials":[{"name":"MAT_F_TORSO_02_W_B","pbrMetallicRoughness":{"metallicFactor":0,"roughnessFactor":0.5,"baseColorTexture":{"index":0}}}],"meshes":[{"name":"MESH_F_TORSO_02_B","primitives":[{"attributes":{"POSITION":0,"NORMAL":1,"TANGENT":2,"TEXCOORD_0":4,"TEXCOORD_1":5,"TEXCOORD_2":6,"TEXCOORD_3":7,"COLOR_0":3},"indices":8,"material":0}]}],"scene":0,"scenes":[{"name":"MESH_F_TORSO_02_B","nodes":[0]}],"textures":[{"source":0}]}