{"asset":{"version":"2.0","generator":"Unity 2021.3.31f1 glTFast 5.0.5"},"nodes":[{"name":"MESH_M_TORSO_01_W_B","mesh":0,"translation":[0,0.9320001,0.031999886],"rotation":[-0.7071068,0,0,0.7071068]}],"buffers":[{"uri":"short.bin","byteLength":207744}],"bufferViews":[{"buffer":0,"byteLength":48960},{"buffer":0,"byteLength":99240,"byteOffset":48960,"byteStride":40},{"buffer":0,"byteLength":39696,"byteOffset":148200,"byteStride":16},{"buffer":0,"byteLength":19848,"byteOffset":187896,"byteStride":8}],"accessors":[{"bufferView":1,"componentType":5126,"count":2481,"type":"VEC3","max":[0.507689059,0.193092734,0.6688792],"min":[-0.507689059,-0.1574013,0.0148084164]},{"bufferView":1,"componentType":5126,"count":2481,"type":"VEC3","byteOffset":12},{"bufferView":1,"componentType":5126,"count":2481,"type":"VEC4","byteOffset":24},{"bufferView":2,"componentType":5126,"count":2481,"type":"VEC4"},{"bufferView":3,"componentType":5126,"count":2481,"type":"VEC2"},{"bufferView":0,"componentType":5125,"count":12240,"type":"SCALAR"}],"images":[{"name":"TEX_M_TORSO_01_B_NAO.png","uri":"TEX_M_TORSO_01_B_NAO.png","mimeType":"image/png"},{"name":"TEX_M_TORSO_01_W_B_DO.jpg","uri":"TEX_M_TORSO_01_W_B_DO.jpg","mimeType":"image/jpeg"}],"materials":[{"name":"MAT_M_TORSO_01_W_B","pbrMetallicRoughness":{"metallicFactor":0,"roughnessFactor":0.587,"baseColorTexture":{"index":1}},"normalTexture":{"index":0}}],"meshes":[{"name":"MESH_M_TORSO_01_W_B","primitives":[{"attributes":{"POSITION":0,"NORMAL":1,"TANGENT":2,"TEXCOORD_0":4,"COLOR_0":3},"indices":5,"material":0}]}],"scene":0,"scenes":[{"name":"MESH_M_TORSO_01_W_B","nodes":[0]}],"textures":[{"source":0},{"source":1}]}