{"asset":{"version":"2.0","generator":"Unity 2021.3.31f1 glTFast 5.0.5"},"nodes":[{"name":"PurpleBlouse","mesh":0}],"buffers":[{"uri":"PurpleBlouse.bin","byteLength":134448}],"bufferViews":[{"buffer":0,"byteLength":36624},{"buffer":0,"byteLength":81520,"byteOffset":36624,"byteStride":40},{"buffer":0,"byteLength":16304,"byteOffset":118144,"byteStride":8}],"accessors":[{"bufferView":1,"componentType":5126,"count":2038,"type":"VEC3","max":[0.0518931746,0.599997759,0.253332853],"min":[-0.0505795926,-0.00541168451,-0.3048296]},{"bufferView":1,"componentType":5126,"count":2038,"type":"VEC3","byteOffset":12},{"bufferView":1,"componentType":5126,"count":2038,"type":"VEC4","byteOffset":24},{"bufferView":2,"componentType":5126,"count":2038,"type":"VEC2"},{"bufferView":0,"componentType":5125,"count":9156,"type":"SCALAR"}],"images":[{"name":"fabric_138_normal-2K 1.png","uri":"fabric_138_normal-2K 1.png","mimeType":"image/png"},{"name":"glb.png","uri":"glb.png","mimeType":"image/png"}],"materials":[{"name":"Material.001","pbrMetallicRoughness":{"metallicFactor":0,"roughnessFactor":0.5,"baseColorTexture":{"index":1}},"normalTexture":{"index":0},"doubleSided":true}],"meshes":[{"name":"PurpleBlouse","primitives":[{"attributes":{"POSITION":0,"NORMAL":1,"TANGENT":2,"TEXCOORD_0":3},"indices":4,"material":0}]}],"samplers":[{"minFilter":9987}],"scene":0,"scenes":[{"name":"PurpleBlouse","nodes":[0]}],"textures":[{"source":0},{"source":1,"sampler":0}]}