{"asset":{"version":"2.0","generator":"Unity 2021.3.31f1 glTFast 5.0.5"},"nodes":[{"name":"FlatBlueBlouse","mesh":0,"translation":[3.12624669,0.329000115,-3.52347279],"rotation":[0,-0.00264027342,0,0.999996543]}],"buffers":[{"uri":"FlatBlueBlouse.bin","byteLength":130224}],"bufferViews":[{"buffer":0,"byteLength":35520},{"buffer":0,"byteLength":78920,"byteOffset":35520,"byteStride":40},{"buffer":0,"byteLength":15784,"byteOffset":114440,"byteStride":8}],"accessors":[{"bufferView":1,"componentType":5126,"count":1973,"type":"VEC3","max":[0.2535077,0.5934905,0.165780067],"min":[-0.344504982,0.0237218142,-0.1584552]},{"bufferView":1,"componentType":5126,"count":1973,"type":"VEC3","byteOffset":12},{"bufferView":1,"componentType":5126,"count":1973,"type":"VEC4","byteOffset":24},{"bufferView":2,"componentType":5126,"count":1973,"type":"VEC2"},{"bufferView":0,"componentType":5125,"count":8880,"type":"SCALAR"}],"images":[{"name":"glb.png","uri":"glb.png","mimeType":"image/png"},{"name":"glb.png","uri":"glb_0.png","mimeType":"image/png"}],"materials":[{"name":"Material.005","pbrMetallicRoughness":{"metallicFactor":0,"roughnessFactor":0.5,"baseColorTexture":{"index":1}},"normalTexture":{"index":0},"doubleSided":true}],"meshes":[{"name":"FlatBlueBlouse","primitives":[{"attributes":{"POSITION":0,"NORMAL":1,"TANGENT":2,"TEXCOORD_0":3},"indices":4,"material":0}]}],"samplers":[{"minFilter":9987}],"scene":0,"scenes":[{"name":"FlatBlueBlouse","nodes":[0]}],"textures":[{"source":0,"sampler":0},{"source":1,"sampler":0}]}