{"asset":{"version":"2.0","generator":"Unity 2021.3.31f1 glTFast 5.0.5"},"nodes":[{"name":"FlatBlackCowboyHat","mesh":0,"translation":[26.094,0.083,0]}],"buffers":[{"uri":"FlatBlackCowboyHat.bin","byteLength":583656}],"bufferViews":[{"buffer":0,"byteLength":68088},{"buffer":0,"byteLength":515568,"byteOffset":68088,"byteStride":48}],"accessors":[{"bufferView":1,"componentType":5126,"count":10741,"type":"VEC3","max":[0.238693237,0.179749191,0.2849161],"min":[-0.226524353,0.004287243,-0.2884447]},{"bufferView":1,"componentType":5126,"count":10741,"type":"VEC3","byteOffset":12},{"bufferView":1,"componentType":5126,"count":10741,"type":"VEC4","byteOffset":24},{"bufferView":1,"componentType":5126,"count":10741,"type":"VEC2","byteOffset":40},{"bufferView":0,"componentType":5123,"count":34044,"type":"SCALAR"}],"materials":[{"name":"Hat_MAT","pbrMetallicRoughness":{"baseColorFactor":[0,0,0,1],"metallicFactor":0,"roughnessFactor":0.5}}],"meshes":[{"name":"FlatBlackCowboyHat","primitives":[{"attributes":{"POSITION":0,"NORMAL":1,"TANGENT":2,"TEXCOORD_0":3},"indices":4,"material":0}]}],"scene":0,"scenes":[{"name":"FlatBlackCowboyHat","nodes":[0]}]}