{"asset":{"version":"2.0","generator":"Unity 2022.3.12f1 glTFast 6.0.1"},"nodes":[{"name":"FarmerHat_LOD0","mesh":0},{"name":"FarmerHat_LODG","children":[0],"translation":[3.02727818,0,1.08905053]}],"buffers":[{"uri":"FarmerHat_LODG.bin","byteLength":15296}],"bufferViews":[{"buffer":0,"byteLength":5280},{"buffer":0,"byteLength":7512,"byteOffset":5280,"byteStride":24},{"buffer":0,"byteLength":2504,"byteOffset":12792,"byteStride":8}],"accessors":[{"bufferView":1,"componentType":5126,"count":313,"type":"VEC3","max":[0.17122893,0.112683721,0.184736282],"min":[-0.182531074,-0.072416,-0.1944026]},{"bufferView":1,"componentType":5126,"count":313,"type":"VEC3","byteOffset":12},{"bufferView":2,"componentType":5126,"count":313,"type":"VEC2"},{"bufferView":0,"componentType":5125,"count":1320,"type":"SCALAR"}],"images":[{"name":"FeatherHat_Normal_OpenGL.png","uri":"FeatherHat_Normal_OpenGL.png","mimeType":"image/png"},{"name":"FeatherHat_Base_color.jpg","uri":"FeatherHat_Base_color.jpg","mimeType":"image/jpeg"},{"name":"FeatherHat_Mixed_AO.jpg","uri":"FeatherHat_Mixed_AO.jpg","mimeType":"image/jpeg"}],"materials":[{"name":"Brown","pbrMetallicRoughness":{"metallicFactor":0,"roughnessFactor":0.5,"baseColorTexture":{"index":1}},"normalTexture":{"index":0},"occlusionTexture":{"index":2}}],"meshes":[{"name":"FarmerHat_LOD0","primitives":[{"attributes":{"POSITION":0,"NORMAL":1,"TEXCOORD_0":2},"indices":3,"material":0}]}],"scene":0,"scenes":[{"name":"FarmerHat_LODG","nodes":[1]}],"textures":[{"source":0},{"source":1},{"source":2}]}