{"asset":{"version":"2.0","generator":"Unity 2021.3.31f1 glTFast 5.0.5"},"nodes":[{"name":"FlatRedShirt","mesh":0,"translation":[-2.03398752,0.051,-1.70071828],"rotation":[0,-0.0001305267,0,1]}],"buffers":[{"uri":"FlatRedShirt.bin","byteLength":211584}],"bufferViews":[{"buffer":0,"byteLength":41712},{"buffer":0,"byteLength":141560,"byteOffset":41712,"byteStride":40},{"buffer":0,"byteLength":28312,"byteOffset":183272,"byteStride":8}],"accessors":[{"bufferView":1,"componentType":5126,"count":3539,"type":"VEC3","max":[0.2608157,0.671919,0.0609937161],"min":[-0.284089774,-0.005790949,-0.06393878]},{"bufferView":1,"componentType":5126,"count":3539,"type":"VEC3","byteOffset":12},{"bufferView":1,"componentType":5126,"count":3539,"type":"VEC4","byteOffset":24},{"bufferView":2,"componentType":5126,"count":3539,"type":"VEC2"},{"bufferView":0,"componentType":5125,"count":10428,"type":"SCALAR"}],"images":[{"name":"fabric_138_normal-2K 1.png","uri":"fabric_138_normal-2K 1.png","mimeType":"image/png"},{"name":"glb.png","uri":"glb.png","mimeType":"image/png"}],"materials":[{"name":"Material.012","pbrMetallicRoughness":{"metallicFactor":0,"baseColorTexture":{"index":1}},"normalTexture":{"index":0},"doubleSided":true}],"meshes":[{"name":"FlatRedShirt","primitives":[{"attributes":{"POSITION":0,"NORMAL":1,"TANGENT":2,"TEXCOORD_0":3},"indices":4,"material":0}]}],"samplers":[{"minFilter":9987}],"scene":0,"scenes":[{"name":"FlatRedShirt","nodes":[0]}],"textures":[{"source":0},{"source":1,"sampler":0}]}