{"asset":{"version":"2.0","generator":"Unity 2021.3.31f1 glTFast 5.0.5"},"nodes":[{"name":"HangingPurpleBlouse","mesh":0,"translation":[-9.986601,0.01699999,1.86320484],"rotation":[0,0.00425985828,0,0.999991]}],"buffers":[{"uri":"HangingPurpleBlouse.bin","byteLength":315456}],"bufferViews":[{"buffer":0,"byteLength":83184},{"buffer":0,"byteLength":232272,"byteOffset":83184,"byteStride":48}],"accessors":[{"bufferView":1,"componentType":5126,"count":4839,"type":"VEC3","max":[0.260822237,0.7326218,0.04897928],"min":[-0.297258675,-0.00141167641,-0.0533060841]},{"bufferView":1,"componentType":5126,"count":4839,"type":"VEC3","byteOffset":12},{"bufferView":1,"componentType":5126,"count":4839,"type":"VEC4","byteOffset":24},{"bufferView":1,"componentType":5126,"count":4839,"type":"VEC2","byteOffset":40},{"bufferView":0,"componentType":5125,"count":9156,"type":"SCALAR"},{"bufferView":0,"componentType":5125,"count":2412,"type":"SCALAR","byteOffset":36624},{"bufferView":0,"componentType":5125,"count":9228,"type":"SCALAR","byteOffset":46272}],"images":[{"name":"fabric_138_normal-2K 1.png","uri":"fabric_138_normal-2K 1.png","mimeType":"image/png"},{"name":"glb.png","uri":"glb.png","mimeType":"image/png"}],"materials":[{"name":"Material.001","pbrMetallicRoughness":{"metallicFactor":0,"roughnessFactor":0.5,"baseColorTexture":{"index":1}},"normalTexture":{"index":0},"doubleSided":true},{"name":"Material.022","pbrMetallicRoughness":{"metallicFactor":0},"doubleSided":true},{"name":"Material.021","pbrMetallicRoughness":{"metallicFactor":0},"doubleSided":true}],"meshes":[{"name":"HangingPurpleBlouse","primitives":[{"attributes":{"POSITION":0,"NORMAL":1,"TANGENT":2,"TEXCOORD_0":3},"indices":4,"material":0},{"attributes":{"POSITION":0,"NORMAL":1,"TANGENT":2,"TEXCOORD_0":3},"indices":5,"material":1},{"attributes":{"POSITION":0,"NORMAL":1,"TANGENT":2,"TEXCOORD_0":3},"indices":6,"material":2}]}],"samplers":[{"minFilter":9987}],"scene":0,"scenes":[{"name":"HangingPurpleBlouse","nodes":[0]}],"textures":[{"source":0},{"source":1,"sampler":0}]}