{"asset":{"version":"2.0","generator":"Unity 2021.3.31f1 glTFast 5.0.5"},"nodes":[{"name":"FoldedDress","mesh":0,"translation":[13.3266258,0.0229996443,-4.375346],"scale":[0.01,0.0100000007,0.0100000007]}],"buffers":[{"uri":"FoldedDress.bin","byteLength":159648}],"bufferViews":[{"buffer":0,"byteLength":25416},{"buffer":0,"byteLength":95880,"byteOffset":25416,"byteStride":40},{"buffer":0,"byteLength":38352,"byteOffset":121296,"byteStride":16}],"accessors":[{"bufferView":1,"componentType":5126,"count":2397,"type":"VEC3","max":[18.0677223,4.10999966,15.3585835],"min":[-18.8922768,-0.09000206,-17.44147]},{"bufferView":1,"componentType":5126,"count":2397,"type":"VEC3","byteOffset":12},{"bufferView":1,"componentType":5126,"count":2397,"type":"VEC4","byteOffset":24},{"bufferView":2,"componentType":5126,"count":2397,"type":"VEC2"},{"bufferView":2,"componentType":5126,"count":2397,"type":"VEC2","byteOffset":8},{"bufferView":0,"componentType":5125,"count":6354,"type":"SCALAR"}],"images":[{"name":"fabric_101_normal-2K.png","uri":"fabric_101_normal-2K.png","mimeType":"image/png"},{"name":"fabric_138_basecolor-2K.jpg","uri":"fabric_138_basecolor-2K.jpg","mimeType":"image/jpeg"}],"materials":[{"name":"Fabric.005","pbrMetallicRoughness":{"metallicFactor":0,"roughnessFactor":0.5,"baseColorTexture":{"index":1}},"normalTexture":{"index":0},"doubleSided":true}],"meshes":[{"name":"FoldedDress","primitives":[{"attributes":{"POSITION":0,"NORMAL":1,"TANGENT":2,"TEXCOORD_0":3,"TEXCOORD_1":4},"indices":5,"material":0}]}],"samplers":[{"minFilter":9987}],"scene":0,"scenes":[{"name":"FoldedDress","nodes":[0]}],"textures":[{"source":0,"sampler":0},{"source":1}]}