{"asset":{"version":"2.0","generator":"Unity 2021.3.31f1 glTFast 5.0.5"},"nodes":[{"name":"WomanBag","mesh":0,"translation":[13.9046268,0.0579986572,-4.498347],"rotation":[0,-1,0,0],"scale":[0.01,0.0100000026,0.0100000026]}],"buffers":[{"uri":"WomanBag.bin","byteLength":55552}],"bufferViews":[{"buffer":0,"byteLength":11760},{"buffer":0,"byteLength":31280,"byteOffset":11760,"byteStride":40},{"buffer":0,"byteLength":12512,"byteOffset":43040,"byteStride":16}],"accessors":[{"bufferView":1,"componentType":5126,"count":782,"type":"VEC3","max":[16.30553,55.1235123,8.10080051],"min":[-13.6068,0.324142456,-12.2668467]},{"bufferView":1,"componentType":5126,"count":782,"type":"VEC3","byteOffset":12},{"bufferView":1,"componentType":5126,"count":782,"type":"VEC4","byteOffset":24},{"bufferView":2,"componentType":5126,"count":782,"type":"VEC2"},{"bufferView":2,"componentType":5126,"count":782,"type":"VEC2","byteOffset":8},{"bufferView":0,"componentType":5125,"count":2940,"type":"SCALAR"}],"images":[{"name":"Fabric047_2K_Normal.png","uri":"Fabric047_2K_Normal.png","mimeType":"image/png"},{"name":"Fabric047_2K_Color.jpg","uri":"Fabric047_2K_Color.jpg","mimeType":"image/jpeg"}],"materials":[{"name":"Fabric.001","pbrMetallicRoughness":{"metallicFactor":0.5,"roughnessFactor":0.283,"baseColorTexture":{"index":1}},"normalTexture":{"index":0},"doubleSided":true}],"meshes":[{"name":"WomanBag","primitives":[{"attributes":{"POSITION":0,"NORMAL":1,"TANGENT":2,"TEXCOORD_0":3,"TEXCOORD_1":4},"indices":5,"material":0}]}],"samplers":[{"minFilter":9987}],"scene":0,"scenes":[{"name":"WomanBag","nodes":[0]}],"textures":[{"source":0,"sampler":0},{"source":1}]}