{"asset":{"version":"2.0","generator":"Unity 2021.3.31f1 glTFast 5.0.5"},"nodes":[{"name":"hoodie","mesh":0}],"buffers":[{"uri":"hoodie.bin","byteLength":158804}],"bufferViews":[{"buffer":0,"byteLength":24852},{"buffer":0,"byteLength":103040,"byteOffset":24852,"byteStride":40},{"buffer":0,"byteLength":30912,"byteOffset":127892,"byteStride":12}],"accessors":[{"bufferView":1,"componentType":5126,"count":2576,"type":"VEC3","max":[0.520828962,0.20797649,1.60087919],"min":[-0.520828962,-0.1968551,0.897402048]},{"bufferView":1,"componentType":5126,"count":2576,"type":"VEC3","byteOffset":12},{"bufferView":1,"componentType":5126,"count":2576,"type":"VEC4","byteOffset":24},{"bufferView":2,"componentType":5121,"count":2576,"type":"VEC4"},{"bufferView":2,"componentType":5126,"count":2576,"type":"VEC2","byteOffset":4},{"bufferView":0,"componentType":5123,"count":12426,"type":"SCALAR"}],"images":[{"name":"TEX_M_TORSO_02_DO.jpg","uri":"TEX_M_TORSO_02_DO.jpg","mimeType":"image/jpeg"},{"name":"TEX_M_TORSO_02_NAO.jpg","uri":"TEX_M_TORSO_02_NAO.jpg","mimeType":"image/jpeg"}],"materials":[{"name":"MAT_M_TORSO_02","pbrMetallicRoughness":{"roughnessFactor":0,"baseColorTexture":{"index":0},"metallicRoughnessTexture":{"index":1}}}],"meshes":[{"name":"MESH_M_TORSO_02_B","primitives":[{"attributes":{"POSITION":0,"NORMAL":1,"TANGENT":2,"TEXCOORD_0":4,"COLOR_0":3},"indices":5,"material":0}]}],"scene":0,"scenes":[{"name":"Test","nodes":[0]}],"textures":[{"source":0},{"source":1}]}