{"asset":{"version":"2.0","generator":"Unity 2021.3.31f1 glTFast 5.0.5"},"nodes":[{"name":"MESH_F_TORSO_01_B","mesh":0,"translation":[-215.135,0.740999937,73.767],"rotation":[-0.7071068,0,0,0.7071067]}],"buffers":[{"uri":"hoodie.bin","byteLength":134344}],"bufferViews":[{"buffer":0,"byteLength":21036},{"buffer":0,"byteLength":87160,"byteOffset":21036,"byteStride":40},{"buffer":0,"byteLength":26148,"byteOffset":108196,"byteStride":12}],"accessors":[{"bufferView":1,"componentType":5126,"count":2179,"type":"VEC3","max":[0.47955063,0.173953682,0.6360643],"min":[-0.47955063,-0.179274172,0.00717759132]},{"bufferView":1,"componentType":5126,"count":2179,"type":"VEC3","byteOffset":12},{"bufferView":1,"componentType":5126,"count":2179,"type":"VEC4","byteOffset":24},{"bufferView":2,"componentType":5121,"count":2179,"type":"VEC4"},{"bufferView":2,"componentType":5126,"count":2179,"type":"VEC2","byteOffset":4},{"bufferView":0,"componentType":5123,"count":10518,"type":"SCALAR"}],"images":[{"name":"TEX_F_TORSO_01_R_NAO.png","uri":"TEX_F_TORSO_01_R_NAO.png","mimeType":"image/png"},{"name":"TEX_F_TORSO_01_R_DO.png","uri":"TEX_F_TORSO_01_R_DO.png","mimeType":"image/png"}],"materials":[{"name":"MAT_F_TORSO_01","pbrMetallicRoughness":{"metallicFactor":0,"roughnessFactor":0.5,"baseColorTexture":{"index":1}},"normalTexture":{"index":0}}],"meshes":[{"name":"MESH_F_TORSO_01_B","primitives":[{"attributes":{"POSITION":0,"NORMAL":1,"TANGENT":2,"TEXCOORD_0":4,"COLOR_0":3},"indices":5,"material":0}]}],"scene":0,"scenes":[{"name":"MESH_F_TORSO_01_B","nodes":[0]}],"textures":[{"source":0},{"source":1}]}