{"asset":{"version":"2.0","generator":"Unity 2021.3.31f1 glTFast 5.0.5"},"nodes":[{"name":"MESH_M_TORSO_02_B","mesh":0,"translation":[0,0.8910001,0.0179998875],"rotation":[-0.7071068,0,0,0.7071068]}],"buffers":[{"uri":"hoodie.bin","byteLength":214568}],"bufferViews":[{"buffer":0,"byteLength":49704},{"buffer":0,"byteLength":103040,"byteOffset":49704,"byteStride":40},{"buffer":0,"byteLength":41216,"byteOffset":152744,"byteStride":16},{"buffer":0,"byteLength":20608,"byteOffset":193960,"byteStride":8}],"accessors":[{"bufferView":1,"componentType":5126,"count":2576,"type":"VEC3","max":[0.520828962,0.2259765,0.7098792],"min":[-0.520828962,-0.178855091,0.00640207529]},{"bufferView":1,"componentType":5126,"count":2576,"type":"VEC3","byteOffset":12},{"bufferView":1,"componentType":5126,"count":2576,"type":"VEC4","byteOffset":24},{"bufferView":2,"componentType":5126,"count":2576,"type":"VEC4"},{"bufferView":3,"componentType":5126,"count":2576,"type":"VEC2"},{"bufferView":0,"componentType":5125,"count":12426,"type":"SCALAR"}],"images":[{"name":"TEX_M_TORSO_02_DO.jpg","uri":"TEX_M_TORSO_02_DO.jpg","mimeType":"image/jpeg"},{"name":"TEX_M_TORSO_02_NAO.jpg","uri":"TEX_M_TORSO_02_NAO.jpg","mimeType":"image/jpeg"}],"materials":[{"name":"MAT_M_TORSO_02","pbrMetallicRoughness":{"roughnessFactor":0,"baseColorTexture":{"index":0},"metallicRoughnessTexture":{"index":1}}}],"meshes":[{"name":"MESH_M_TORSO_02_B","primitives":[{"attributes":{"POSITION":0,"NORMAL":1,"TANGENT":2,"TEXCOORD_0":4,"COLOR_0":3},"indices":5,"material":0}]}],"scene":0,"scenes":[{"name":"MESH_M_TORSO_02_B","nodes":[0]}],"textures":[{"source":0},{"source":1}]}